<?xml version="1.0" encoding="utf-8"?>
<!-- Generator: Adobe Illustrator 19.2.1, SVG Export Plug-In . SVG Version: 6.00 Build 0)  -->
<svg version="1.1" xmlns="http://www.w3.org/2000/svg" xmlns:xlink="http://www.w3.org/1999/xlink" x="0px" y="0px"
	 viewBox="0 0 500 500" style="enable-background:new 0 0 500 500;" xml:space="preserve">
<style type="text/css">
	.st0{fill:#4D4D4D;}
	.st1{fill:url(#Circle_1_);}
	.st2{fill:none;}
	.st3{fill:#FFFFFF;}
</style>
<g id="Text">
	<g>
		<path class="st0" d="M44.1,401.9c-0.6,0-2,0-2-1.9c0-1.8,1.2-1.9,2-1.9H68v-11.4H38.5c-0.6,0-2,0-2-1.9c0-1.8,1.4-1.9,2-1.9H68
			v-7.1c0-0.6,0-2.1,1.9-2.1c1.6,0,2.2,0.5,2.2,2.1v7.1h29.5c0.6,0,2.1,0.1,2.1,1.9c0,1.9-1.5,1.9-2.1,1.9H72.2v11.4H83
			c3.5,0,4.1,0,5.4,0.6c1.6,0.8,2.1,2.2,2.1,3.5c0,4.9-8.5,16.7-16.4,22.8c4.8,3,10,6.1,24.5,9.6c0.5,0.1,3,0.6,3.5,0.8
			c0.7,0.2,0.9,0.8,0.9,1.6c0,1.1-0.6,2.3-2.1,2.3c-2,0-18.4-3.4-30.4-11.7c-11.5,7.7-28.9,11.7-31,11.7c-1.4,0-2.2-1.2-2.2-2.3
			c0-1.6,0.9-1.9,1.8-2c5.5-1.2,17.3-3.4,27.8-9.9c-9.9-7.8-14.3-16.7-14.3-17.8c0-1.2,0.9-2.1,2.2-2.1c1,0,1.4,0.6,1.9,1.4
			c2.4,4.3,6,10.1,13.8,15.9c9.7-7.3,15.2-17.3,15.2-19.2c0-1.7-1.4-1.7-3-1.7H44.1z"/>
		<path class="st0" d="M122.2,433.7c0,1.6,0,4.6-2.8,5.5c-1.2,0.4-1.4,0.4-7.7,0.4c-0.8,0-2.2-0.2-2.2-2.2c0-1.9,1.5-1.9,2.2-1.9
			c0.7,0,3.9,0.1,4.5,0c1.6-0.2,2.1-1.3,2.1-2.7v-18.3c-1,0.4-7.1,2.6-8.1,2.6c-0.9,0-1.7-0.7-1.7-2c0-1.3,0.8-1.6,1.2-1.7
			c1.2-0.5,7.2-2.4,8.6-2.8v-19.1h-7.4c-0.5,0-2,0-2-1.7c0-1.8,1.4-1.8,2-1.8h7.4v-12.4c0-0.7,0.1-2,2-2c1.6,0,1.9,0.9,1.9,2V388
			h5.9c0.7,0,1.9,0.1,1.9,1.8c0,1.6-1.1,1.7-1.9,1.7h-5.9v17.6c1.2-0.4,4.5-1.8,5.3-2.2c0.7-0.3,1-0.4,1.2-0.4
			c1.2,0,1.4,1.2,1.4,1.8c0,1-0.6,1.4-1,1.6c-1,0.6-4.6,2.1-7,3V433.7z M133.1,409.1c-0.8,0-1.9-0.2-1.9-1.7c0-1.2,0.6-1.7,1.9-1.7
			h10.1c0.5-3.4,0.6-5.7,0.6-7.3h-10c-0.6,0-1.9-0.1-1.9-1.7c0-1.4,1-1.7,1.9-1.7h28.1c1.4-2.1,4-6.2,6.7-11.7
			c1.2-2.6,1.4-2.9,2.4-2.9c0.9,0,2,0.7,2,1.8c0,1.4-3.9,8.4-6.8,12.7h5c0.9,0,1.9,0.2,1.9,1.6c0,1.2-0.6,1.7-1.9,1.7h-23.6
			c-0.1,2.3-0.1,4.3-0.6,7.3h25.8c0.9,0,2,0.3,2,1.7c0,1.2-0.6,1.7-2,1.7h-26.4c-0.1,0.3-0.6,3.1-1.9,6.6h19.9c2.2,0,5.5,0,5.5,3.2
			c0,2.6-1.9,4.9-2.7,5.8c-2.2,2.6-5.2,5-6.8,6.2c4,2.4,7.9,4.1,12.9,5.2c0.7,0.1,1.6,0.4,1.6,1.6c0,0.6-0.4,2.4-2.2,2.4
			c-0.9,0-8.1-1.9-15.6-6.9c-9.4,5.6-17.9,6.7-18.2,6.7c-1.2,0-1.9-1-1.9-2.1c0-1.2,0.9-1.5,1.5-1.7c8.3-1.7,12.7-4,15.3-5.5
			c-3.1-2.6-7.5-7.5-7.5-8.7c0-1,0.9-1.9,1.9-1.9c0.9,0,1.3,0.6,1.7,1.1c2.1,3,4.8,5.6,7.3,7.6c4.2-2.7,8.3-6.7,8.3-8.6
			c0-1.2-0.9-1.2-1.9-1.2h-20.4c-3.1,7.5-7.3,13.3-11.1,17.3c-1.2,1.3-3.8,4-5.1,4c-1.3,0-2.2-1.2-2.2-2.1c0-0.7,0.5-1.2,1.4-1.9
			c4.5-3.7,9.3-9.7,12.3-15.9c2.6-5.3,3.5-9.4,3.8-11.2H133.1z M166.1,378.5c-6.4,1.1-12.9,1.6-19.4,2c-4,0.3-11.1,0.7-14.8,0.7
			c-0.4,0-2.2,0-2.2-1.9c0-1.6,1.3-1.6,2-1.7c11.1-0.1,22.1-0.7,33.1-2.7c0.8-0.1,4.4-0.9,5-0.9c0.6,0,1.8,0.6,1.8,2.3
			C171.6,377.6,170.6,377.8,166.1,378.5z M138.4,386.4c0.5,1.2,1.8,4.1,1.8,5c0,1.3-1.2,1.8-1.9,1.8c-1.2,0-1.3-0.4-2.2-2.6
			c-0.6-1.6-0.9-1.9-1.9-4.2c-0.4-0.8-0.6-1.2-0.6-1.7c0-1.2,1.3-1.7,1.9-1.7C136.9,382.9,137,383.1,138.4,386.4z M153,385.7
			c0.5,1.2,2,4.5,2,5.5c0,1.3-1.1,1.9-2,1.9c-1.2,0-1.4-0.5-2.2-2.5c-0.3-0.6-0.7-1.9-1.9-4.5c-0.8-1.8-0.9-1.9-0.9-2.4
			c0-0.9,1.1-1.7,2-1.7C151.2,382,151.5,382.1,153,385.7z"/>
		<path class="st0" d="M194,387.2v-11.4c0-0.6,0-2.1,1.9-2.1c1.4,0,2.1,0.6,2.1,2.1v11.4h5.8c0.4,0,2.1,0,2.1,1.9
			c0,1.7-1.4,1.9-2.1,1.9h-5.8v18.9c2.4-0.8,4.2-1.4,6.5-2.3c0.8-0.4,1.1-0.4,1.3-0.4c1.1,0,1.6,0.9,1.6,2c0,0.6-0.1,1.1-1.2,1.7
			c-0.7,0.4-2.6,1.3-8.1,3.1v24.6c0,0.6-0.1,2.1-1.9,2.1c-1.6,0-2.1-0.7-2.1-2.1v-23.4c-2.3,0.7-10.6,3.3-12.3,3.3
			c-1.5,0-1.8-1.4-1.8-1.9c0-1.4,0.9-1.7,1.3-1.9c0.1-0.1,11.3-3.1,12.8-3.5v-20.2h-5.9c-1.7,9.1-3.5,12.3-3.6,12.5
			c-0.4,0.7-0.9,1-1.7,1c-0.9,0-2.2-0.6-2.2-1.9c0-0.6,1.2-3.2,1.4-3.7c2.7-6.8,3.2-13,3.6-20.5c0-0.7,0.1-1.9,1.8-1.9
			c1.9,0,1.9,1.1,1.9,2.1c0,0.8-0.1,4.2-0.6,8.6H194z M226.2,388.6c-3.3,21.6-19.3,35.9-21.8,35.9c-1.1,0-2.2-1.1-2.2-2.4
			c0-0.9,0.6-1.4,1.4-2c7.8-5.9,16.3-16.2,18.8-31.5h-8.6c-1.4,3.7-6.4,15.1-9.1,15.1c-1.2,0-2.4-1-2.4-2.2c0-0.5,0.1-0.9,0.9-1.8
			c6.5-8.2,8.9-17.3,10.3-24c0.2-1,0.4-2.2,2-2.2c1.1,0,1.8,0.6,1.8,1.6c0,2-1.7,7.6-2.3,9.8h21.7c7.1,0,8.3,2.1,8.3,8.2
			c0,12.2-0.8,30.4-3.1,38c-2.1,6.9-4.5,8.4-11.6,8.4h-6.6c-0.5,0-2.4-0.1-2.4-2.1c0-2.2,2.2-2.2,3.3-2.2c1.1,0,6,0.1,7,0.1
			c4,0,6.3-1.1,7.6-11.9c1.7-12.5,1.8-25.6,1.8-26.8c0-6.6,0-8.1-3.7-8.1c-1.2,8.3-4.7,24.4-14.3,37.4c-5.9,7.8-13.5,13.2-15,13.2
			c-1.4,0-2.2-1.2-2.2-2.2c0-0.9,0.6-1.5,1.7-2.2c17.3-10.9,24.2-32.5,25.9-46.2H226.2z"/>
		<path class="st0" d="M266.6,395.2c-2.3,0.9-10.9,4.2-12.6,4.2c-1.2,0-1.7-1.3-1.7-2.2c0-1.4,0.1-1.4,4.6-2.6
			c3.7-1,8.5-2.7,10.1-3.3c0.3-0.1,2.2-0.9,2.4-0.9c1,0,1.5,0.7,1.5,1.7C271,393.1,270.4,393.8,266.6,395.2z M275,432
			c0,0.8-0.2,1.3-4.8,3.2c-7.3,3-13.3,4.7-14.5,4.7c-1.6,0-2-1.4-2-2.2c0-1.3,0.1-1.4,5.3-2.7c2.4-0.6,9.4-2.9,12.6-4.6
			c0.6-0.4,1-0.5,1.7-0.5C274.1,429.9,275,430.9,275,432z M258.6,374.4c1.2,0,4.1,1.7,7.3,3.6c3.5,2,3.6,2.6,3.6,3.2
			c0,0.9-0.6,2.2-1.8,2.2c-0.6,0-0.9-0.2-3.2-1.7c-1.3-0.8-6.7-3.7-6.8-3.8c-0.9-0.4-0.9-0.8-0.9-1.7
			C256.8,375.6,257.6,374.4,258.6,374.4z M310.9,422.1c0,4.2-1.4,5.8-5.8,5.8h-38.2c-4.3,0-5.8-1.4-5.8-5.8v-17.4
			c0-4.3,1.4-5.9,5.8-5.9h38.2c4.3,0,5.8,1.5,5.8,5.9V422.1z M306.7,407.1v-2.3c0-1.7-0.7-2.7-2.7-2.7h-36.1c-1.9,0-2.7,0.9-2.7,2.7
			v2.3H306.7z M265.2,410.2v5.4h41.5v-5.4H265.2z M265.2,418.8v3c0,1.7,0.7,2.7,2.7,2.7H304c1.9,0,2.7-0.9,2.7-2.7v-3H265.2z
			 M282,381.7c-1.8,1.7-6.6,6.5-8.1,6.5c-0.9,0-1.9-0.8-1.9-1.9c0-0.7,0.2-0.9,2.5-2.6c2.4-1.9,5.7-5,7.4-7.2
			c2.2-2.7,2.3-2.8,3.2-2.8c1.1,0,2,0.7,2,1.7c0,0.8-1.2,2.2-2.2,3.2h24.9c1.6,0,5,0,5,3.2c0,1.3-0.6,2.6-2.7,5c-1,1.1-2.7,3-3.7,3
			c-0.9,0-2-0.7-2-1.7c0-0.6,0.2-0.9,1.3-1.9c2.4-2.3,3-3,3-3.5c0-0.9-0.8-0.9-1.7-0.9h-13c0.6,0.4,0.8,0.6,2.4,3.2
			c4.8,7.8,15.7,9.9,18.9,10.5c0.9,0.1,1.9,0.4,1.9,1.7c0,0.9-0.4,2.4-1.9,2.4c-0.8,0-6.7-1.4-10.8-3.3c-7.7-3.6-10.7-8.9-12-11.2
			c-0.9,2.1-2.7,6.3-9.8,9.5c-3,1.4-8,2.4-8.5,2.4c-1.8,0-2-1.7-2-2.1c0-1.2,0.1-1.3,4.1-2.2c6.7-1.6,10.7-4,12.6-7.8
			c1.2-2.3,1.3-2.6,1.8-3H282z M298.7,429.9c0.4,0,0.6,0.1,3.1,1.2c5.6,2.5,12,4.2,14.5,4.8c0.9,0.2,1.8,0.4,1.8,1.8
			c0,0.8-0.4,2.2-2,2.2s-8.7-2.2-14.1-4.5c-4.8-1.9-5.3-2.7-5.1-3.7C297,430.8,297.8,429.9,298.7,429.9z"/>
		<path class="st0" d="M330.5,390.1c0,0.9-0.4,6.9-1.9,13.2c-1.1,4.5-1.6,4.8-2.6,4.8s-2-0.6-2-1.7c0-0.2,1.3-5.1,1.5-6
			c0.9-4.4,1.3-8,1.5-10.2c0-0.8,0.1-2.2,2.1-1.9C330.5,388.5,330.5,389.7,330.5,390.1z M338.3,439c0,0.6,0,2-1.9,2
			c-1.4,0-2.1-0.5-2.1-2v-63.6c0-0.7,0.1-2.1,1.9-2.1c1.8,0,2,1.1,2,2.1V439z M345.3,389.7c0.5,1.2,1.8,4.2,1.8,5.1
			c0,1.3-1.3,1.7-2.1,1.7c-1.1,0-1.3-0.5-1.9-2.7c-0.4-0.9-2.1-5-2.1-5.7c0-0.9,1-1.6,1.9-1.6C343.9,386.6,344.1,387,345.3,389.7z
			 M387.5,378.8c0.4,0,2,0,2,1.7c0,1.5-1.3,1.7-2,1.7h-16.7v6.1H386c0.5,0,1.9,0,1.9,1.6s-1.3,1.7-1.9,1.7h-15.3v6.2h18
			c0.8,0,2,0.1,2,1.7c0,1.2-0.6,1.7-2,1.7h-40.6c-0.5,0-2,0-2-1.7c0-1.4,1.1-1.7,2-1.7h18.8v-6.2h-15.5c-1.2,0-1.9-0.4-1.9-1.6
			c0-1.1,0.5-1.7,1.9-1.7h15.5v-6.1H350c-1.2,0-2-0.4-2-1.6c0-1,0.4-1.7,2-1.7h16.9v-3.4c0-0.5,0-2.1,1.9-2.1c1.9,0,1.9,1.5,1.9,2.1
			v3.4H387.5z M354.6,426.8V439c0,0.7-0.1,2-1.9,2c-1.5,0-1.9-0.9-1.9-2v-27.2c0-4.2,1.4-5.8,5.8-5.8h24.8c4.4,0,5.9,1.5,5.9,5.8
			v21.9c0,3.3-0.8,5.8-5,5.8h-6.5c-1.2,0-3,0-3-2.1c0-2,1.4-2,2.2-2h5.8c1.9,0,2.4-1.2,2.4-2.7v-5.9H354.6z M383.3,414.7v-2.7
			c0-1.7-0.7-2.7-2.7-2.7h-23.3c-1.9,0-2.7,0.9-2.7,2.7v2.7H383.3z M383.3,418h-28.7v5.7h28.7V418z"/>
		<path class="st0" d="M427.6,381.5c0.7,0,2,0.1,2,1.9c0,1.6-0.9,1.9-2,1.9H416v8.9h13.5c0.6,0,2,0,2,1.7c0,1.7-1.2,1.8-2,1.8H426
			c-0.7,3.9-2,8.1-3,10.9h6.1c0.6,0,2,0,2,1.8c0,1.7-1.2,1.7-2,1.7H416v10.1h11.6c0.6,0,2.1,0,2.1,1.8s-1.5,1.8-2.1,1.8H416v12.7
			c0,0.8,0,2-1.9,2s-1.9-1.2-1.9-2v-12.7h-11.3c-0.7,0-2-0.1-2-1.8c0-1.5,0.9-1.8,2-1.8h11.3v-10.1h-13c-0.6,0-2,0-2-1.7
			c0-1.7,1.3-1.8,2-1.8h6.8c-0.6-3.2-2.4-8.4-3.4-10.9h-3.9c-0.5,0-2,0-2-1.7c0-1.8,1.5-1.8,2-1.8h13.5v-8.9h-11.3c-0.6,0-2,0-2-1.8
			c0-1.3,0.5-1.9,2-1.9h11.3v-5.5c0-0.6,0-2.1,1.9-2.1c1.8,0,1.9,1.2,1.9,2.1v5.5H427.6z M419.3,408.6c0.7-1.4,2.4-8,2.7-10.9h-15.7
			c0.4,1.2,3,9.4,3.4,10.9H419.3z M437.3,404.8v33.3c0,0.7-0.1,2.1-1.9,2.1c-1.6,0-1.9-1-1.9-2.1v-54.5c0-5.3,1.7-7.3,7.2-7.3h13.4
			c3.7,0,6,0.6,6,4.9c0,1.6-0.6,9.2-2,12.3c-1.4,3-2.8,3-10.9,3c-1.6,0-3.2,0-3.2-2.2c0-1.8,1.6-1.8,2.1-1.8c0.9,0,5.3,0.1,6.1,0.1
			c1.9-0.1,2.4-1.1,3.1-3c0.4-1.4,0.9-5.5,0.9-7.3c0-1.9-0.7-2.4-2.8-2.4H441c-2.7,0-3.7,1.2-3.7,3.7v17.5h16.8c2.6,0,6.5,0,6.5,4.5
			c0,2-1.6,11.7-7.6,21.7c1.9,2.2,3.9,4.1,8.6,7.8c0.5,0.4,1.4,1.1,1.4,2c0,1.1-1.1,2.2-2.2,2.2c-2.1,0-8.2-6.8-9.9-8.8
			c-3.5,4.7-7.6,8.4-8.8,8.4c-1.3,0-2.2-1.3-2.2-2.3c0-0.7,0.5-1.2,1.2-1.7c4.2-3.2,6.2-5.9,7.4-7.6c-5-6.6-8.6-16.2-8.6-17.3
			c0-1.3,1.3-1.7,1.9-1.7c1.2,0,1.5,1.1,1.7,1.7c1.7,5,4,9.8,7.1,14.1c1.7-3,4.1-7.3,5.8-14.3c0.4-1.8,0.6-2.6,0.6-3.2
			c0-1.9-1.8-1.9-3-1.9H437.3z"/>
		<path class="st0" d="M126.3,463.7c0.8,0.6,1.9,0.9,2.6,0.9c1,0,1.8-0.5,1.8-1.4c0-1.1-1-1.3-2.2-1.6c-1.2-0.3-2.4-0.9-2.4-2.4
			c0-1.5,1.1-2.4,2.8-2.4c0.8,0,1.8,0.2,2.5,0.6v1.2c-0.8-0.6-1.8-0.8-2.5-0.8c-1,0-1.7,0.4-1.7,1.3c0,1.1,1,1.3,2.1,1.6
			c1.3,0.4,2.5,0.9,2.5,2.5c0,1.6-1.2,2.5-2.9,2.5c-0.8,0-1.9-0.2-2.6-0.7V463.7z"/>
		<path class="st0" d="M133.2,463.3v-3.6h1.1v3.4c0,0.6,0.1,1,0.3,1.2c0.2,0.3,0.6,0.4,0.9,0.4c0.7,0,1.4-0.5,1.8-1v-4h1.1v5.9h-1.1
			v-0.7l0,0c-0.5,0.5-1.2,0.9-2,0.9c-0.6,0-1.2-0.2-1.6-0.7C133.4,464.6,133.2,464.1,133.2,463.3z"/>
		<path class="st0" d="M141.4,468.2h-1.1v-8.5h1.1v0.4l0,0c0.4-0.3,1-0.5,1.7-0.5c1.6,0,2.9,1.2,2.9,3.1c0,1.9-1.4,3.1-3.1,3.1
			c-0.6,0-1.1-0.1-1.5-0.3l0,0V468.2z M142.9,464.7c1.2,0,2-0.9,2-2.1c0-1.2-0.8-2.2-1.9-2.2c-0.5,0-1.1,0.2-1.5,0.5v3.3
			C141.8,464.5,142.3,464.7,142.9,464.7z"/>
		<path class="st0" d="M148.6,468.2h-1.1v-8.5h1.1v0.4l0,0c0.4-0.3,1-0.5,1.7-0.5c1.6,0,2.9,1.2,2.9,3.1c0,1.9-1.4,3.1-3.1,3.1
			c-0.6,0-1.1-0.1-1.5-0.3l0,0V468.2z M150.1,464.7c1.2,0,2-0.9,2-2.1c0-1.2-0.8-2.2-1.9-2.2c-0.5,0-1.1,0.2-1.5,0.5v3.3
			C148.9,464.5,149.5,464.7,150.1,464.7z"/>
		<path class="st0" d="M154.6,456.4h1.1v9.2h-1.1V456.4z"/>
		<path class="st0" d="M157.8,468.2l1.6-3.3l-2.5-5.3h1.2l1,2.2c0.3,0.6,0.6,1.2,0.8,1.8h0c0.3-0.6,0.5-1.2,0.8-1.8l1-2.2h1.1
			l-4,8.5H157.8z"/>
		<path class="st0" d="M169.3,457.9h-2.9v-1h7v1h-2.9v7.7h-1.1V457.9z"/>
		<path class="st0" d="M174.6,459.6h1.1v0.9l0,0c0.4-0.6,1.1-0.9,1.8-0.9c0.1,0,0.3,0,0.4,0v1.1c-0.1,0-0.3,0-0.4,0
			c-0.8,0-1.4,0.4-1.7,1v3.8h-1.1V459.6z"/>
		<path class="st0" d="M179.2,465.3c-0.4-0.3-0.6-0.7-0.6-1.3c0-0.7,0.3-1.1,0.8-1.4c0.4-0.3,1-0.4,1.7-0.4c0.5,0,0.9,0.1,1.3,0.2
			v-0.5c0-0.4-0.1-0.8-0.3-1c-0.2-0.2-0.6-0.3-1.1-0.3c-0.7,0-1.4,0.3-1.8,0.6V460c0.5-0.3,1.1-0.5,2-0.5c0.7,0,1.3,0.2,1.8,0.5
			c0.3,0.3,0.6,0.8,0.6,1.5v2.5c0,0.4,0.1,0.6,0.5,0.6c0.1,0,0.3,0,0.3-0.1v0.9c-0.1,0.1-0.3,0.1-0.6,0.1c-0.5,0-0.9-0.2-1.1-0.6h0
			c-0.3,0.3-1,0.6-1.8,0.6C180.1,465.7,179.6,465.6,179.2,465.3z M182.3,464.2v-1.1c-0.3-0.1-0.8-0.2-1.2-0.2
			c-0.7,0-1.5,0.2-1.5,0.9c0,0.6,0.5,0.9,1.1,0.9C181.3,464.7,181.9,464.5,182.3,464.2z"/>
		<path class="st0" d="M185.3,459.6h1.1v0.7l0,0c0.5-0.5,1.2-0.9,2.1-0.9c0.6,0,1.2,0.2,1.6,0.6c0.3,0.4,0.5,0.8,0.5,1.7v3.6h-1.1
			v-3.4c0-0.6-0.1-1-0.3-1.2c-0.2-0.3-0.6-0.4-0.9-0.4c-0.7,0-1.4,0.4-1.8,1v4h-1.1V459.6z"/>
		<path class="st0" d="M192.3,464.1c0.7,0.4,1.5,0.6,2.3,0.6c0.8,0,1.3-0.2,1.3-0.8c0-0.7-0.9-0.7-1.8-0.9c-1.1-0.2-2-0.5-2-1.7
			c0-1.2,1.1-1.8,2.4-1.8c0.7,0,1.5,0.2,2.1,0.5v1.1c-0.7-0.4-1.5-0.6-2.2-0.6c-0.8,0-1.3,0.2-1.3,0.8c0,0.7,0.8,0.7,1.7,0.8
			c1.1,0.2,2.1,0.5,2.1,1.7c0,1.4-1.2,1.9-2.5,1.9c-0.8,0-1.6-0.2-2.2-0.5V464.1z"/>
		<path class="st0" d="M199.5,468.2h-1.1v-8.5h1.1v0.4l0,0c0.4-0.3,1-0.5,1.7-0.5c1.6,0,2.9,1.2,2.9,3.1c0,1.9-1.4,3.1-3.1,3.1
			c-0.6,0-1.1-0.1-1.5-0.3l0,0V468.2z M201,464.7c1.2,0,2-0.9,2-2.1c0-1.2-0.8-2.2-1.9-2.2c-0.5,0-1.1,0.2-1.5,0.5v3.3
			C199.9,464.5,200.4,464.7,201,464.7z"/>
		<path class="st0" d="M208.3,459.5c1.8,0,3.1,1.3,3.1,3.1s-1.3,3.1-3.1,3.1c-1.8,0-3.1-1.3-3.1-3.1S206.5,459.5,208.3,459.5z
			 M208.3,464.7c1.2,0,2-0.9,2-2.1s-0.9-2.1-2-2.1c-1.2,0-2,0.9-2,2.1S207.1,464.7,208.3,464.7z"/>
		<path class="st0" d="M212.9,459.6h1.1v0.9l0,0c0.4-0.6,1.1-0.9,1.8-0.9c0.1,0,0.3,0,0.4,0v1.1c-0.1,0-0.3,0-0.4,0
			c-0.8,0-1.4,0.4-1.7,1v3.8h-1.1V459.6z"/>
		<path class="st0" d="M217.8,463.5v-2.9h-1.1v-1h1.1V458l1.1-0.2v1.8h1.8v1h-1.8v2.7c0,0.7,0.1,1.4,0.9,1.4c0.3,0,0.7-0.1,0.9-0.3
			v1c-0.2,0.1-0.7,0.2-1.1,0.2c-0.4,0-1-0.1-1.3-0.6C217.9,464.8,217.8,464.3,217.8,463.5z"/>
		<path class="st0" d="M224.9,456.9h1.1v8.7h-1.1V456.9z"/>
		<path class="st0" d="M228,459.6h1.1v0.7l0,0c0.5-0.5,1.2-0.9,2.1-0.9c0.6,0,1.2,0.2,1.6,0.6c0.3,0.4,0.5,0.8,0.5,1.7v3.6h-1.1
			v-3.4c0-0.6-0.1-1-0.3-1.2c-0.2-0.3-0.6-0.4-0.9-0.4c-0.7,0-1.4,0.4-1.8,1v4H228V459.6z"/>
		<path class="st0" d="M235.4,460.6h-0.9v-1h0.9v-1.1c0-0.8,0.1-1.4,0.5-1.8c0.4-0.4,0.9-0.5,1.4-0.5c0.3,0,0.7,0.1,0.9,0.1v1
			c-0.2-0.1-0.6-0.1-0.8-0.1c-0.7,0-0.9,0.5-0.9,1.1v1.3h1.5v1h-1.5v4.9h-1.1V460.6z"/>
		<path class="st0" d="M241.9,459.5c1.8,0,3.1,1.3,3.1,3.1s-1.3,3.1-3.1,3.1c-1.8,0-3.1-1.3-3.1-3.1S240.1,459.5,241.9,459.5z
			 M241.9,464.7c1.2,0,2-0.9,2-2.1s-0.9-2.1-2-2.1c-1.2,0-2,0.9-2,2.1S240.7,464.7,241.9,464.7z"/>
		<path class="st0" d="M246.5,459.6h1.1v0.9l0,0c0.4-0.6,1.1-0.9,1.8-0.9c0.1,0,0.3,0,0.4,0v1.1c-0.1,0-0.3,0-0.4,0
			c-0.8,0-1.4,0.4-1.7,1v3.8h-1.1V459.6z"/>
		<path class="st0" d="M259,462.1c0-0.6-0.1-0.9-0.3-1.2c-0.2-0.3-0.6-0.4-0.9-0.4c-0.7,0-1.4,0.4-1.8,0.9c0,0.1,0,0.3,0,0.4v3.7
			H255v-3.5c0-0.6-0.1-0.9-0.3-1.2c-0.2-0.3-0.6-0.4-0.9-0.4c-0.7,0-1.4,0.4-1.8,0.9v4.1h-1.1v-5.9h1.1v0.7l0,0
			c0.5-0.5,1.2-0.9,2-0.9c0.7,0,1.5,0.3,1.8,1c0.7-0.7,1.4-1,2.2-1c0.6,0,1.2,0.2,1.5,0.6c0.4,0.4,0.5,0.9,0.5,1.7v3.7H259V462.1z"
			/>
		<path class="st0" d="M262.2,465.3c-0.4-0.3-0.6-0.7-0.6-1.3c0-0.7,0.3-1.1,0.8-1.4c0.4-0.3,1-0.4,1.7-0.4c0.5,0,0.9,0.1,1.3,0.2
			v-0.5c0-0.4-0.1-0.8-0.3-1c-0.2-0.2-0.6-0.3-1.1-0.3c-0.7,0-1.4,0.3-1.8,0.6V460c0.5-0.3,1.1-0.5,2-0.5c0.7,0,1.3,0.2,1.8,0.5
			c0.3,0.3,0.6,0.8,0.6,1.5v2.5c0,0.4,0.1,0.6,0.5,0.6c0.1,0,0.3,0,0.3-0.1v0.9c-0.1,0.1-0.3,0.1-0.6,0.1c-0.5,0-0.9-0.2-1.1-0.6h0
			c-0.3,0.3-1,0.6-1.8,0.6C263.1,465.7,262.6,465.6,262.2,465.3z M265.3,464.2v-1.1c-0.3-0.1-0.8-0.2-1.2-0.2
			c-0.7,0-1.5,0.2-1.5,0.9c0,0.6,0.5,0.9,1.1,0.9C264.4,464.7,264.9,464.5,265.3,464.2z"/>
		<path class="st0" d="M268.8,463.5v-2.9h-1.1v-1h1.1V458l1.1-0.2v1.8h1.8v1h-1.8v2.7c0,0.7,0.1,1.4,0.9,1.4c0.3,0,0.7-0.1,0.9-0.3
			v1c-0.2,0.1-0.7,0.2-1.1,0.2c-0.4,0-1-0.1-1.3-0.6C269,464.8,268.8,464.3,268.8,463.5z"/>
		<path class="st0" d="M273.6,456.9c0.4,0,0.8,0.3,0.8,0.8s-0.3,0.8-0.8,0.8s-0.8-0.3-0.8-0.8S273.2,456.9,273.6,456.9z M273,459.6
			h1.1v5.9H273V459.6z"/>
		<path class="st0" d="M278.7,459.5c1.8,0,3.1,1.3,3.1,3.1s-1.3,3.1-3.1,3.1s-3.1-1.3-3.1-3.1S276.9,459.5,278.7,459.5z
			 M278.7,464.7c1.2,0,2-0.9,2-2.1s-0.9-2.1-2-2.1c-1.2,0-2,0.9-2,2.1S277.5,464.7,278.7,464.7z"/>
		<path class="st0" d="M283.3,459.6h1.1v0.7l0,0c0.5-0.5,1.2-0.9,2.1-0.9c0.6,0,1.2,0.2,1.6,0.6c0.3,0.4,0.5,0.8,0.5,1.7v3.6h-1.1
			v-3.4c0-0.6-0.1-1-0.3-1.2c-0.2-0.3-0.6-0.4-0.9-0.4c-0.7,0-1.4,0.4-1.8,1v4h-1.1V459.6z"/>
		<path class="st0" d="M293.6,460.6h-0.9v-1h0.9v-1.1c0-0.8,0.1-1.4,0.5-1.8c0.4-0.4,0.9-0.5,1.4-0.5c0.3,0,0.7,0.1,0.9,0.1v1
			c-0.2-0.1-0.6-0.1-0.8-0.1c-0.7,0-0.9,0.5-0.9,1.1v1.3h1.5v1h-1.5v4.9h-1.1V460.6z"/>
		<path class="st0" d="M300.2,459.5c1.8,0,3.1,1.3,3.1,3.1s-1.3,3.1-3.1,3.1s-3.1-1.3-3.1-3.1S298.4,459.5,300.2,459.5z
			 M300.2,464.7c1.2,0,2-0.9,2-2.1s-0.9-2.1-2-2.1c-1.2,0-2,0.9-2,2.1S299,464.7,300.2,464.7z"/>
		<path class="st0" d="M304.8,459.6h1.1v0.9l0,0c0.4-0.6,1.1-0.9,1.8-0.9c0.1,0,0.3,0,0.4,0v1.1c-0.1,0-0.3,0-0.4,0
			c-0.8,0-1.4,0.4-1.7,1v3.8h-1.1V459.6z"/>
		<path class="st0" d="M311.9,456.9h1.9v3.8l0,0l3-3.9h2.3l-3.3,4l3.6,4.7h-2.4l-3.2-4.3l0,0v4.3h-1.9V456.9z"/>
		<path class="st0" d="M323.9,465c-0.5,0.4-1,0.7-1.8,0.7c-0.7,0-1.2-0.2-1.5-0.6c-0.4-0.4-0.6-0.9-0.6-1.8v-3.6h1.8v3.4
			c0,0.4,0.1,0.7,0.2,0.9c0.2,0.2,0.4,0.3,0.6,0.3c0.5,0,0.9-0.3,1.2-0.5v-3.9h1.8v5.9h-1.8L323.9,465L323.9,465z"/>
		<path class="st0" d="M334.9,462.1c0-0.4-0.1-0.6-0.2-0.8c-0.2-0.2-0.4-0.3-0.6-0.3c-0.4,0-0.9,0.2-1.2,0.5c0,0.1,0,0.2,0,0.3v3.7
			h-1.8v-3.4c0-0.4-0.1-0.6-0.2-0.8c-0.2-0.2-0.4-0.3-0.6-0.3c-0.4,0-0.9,0.2-1.2,0.5v4h-1.8v-5.9h1.8v0.5l0,0
			c0.5-0.4,1.1-0.7,1.8-0.7c0.6,0,1.4,0.3,1.7,0.8c0.6-0.6,1.3-0.8,2.1-0.8c0.7,0,1.2,0.2,1.5,0.6c0.4,0.4,0.5,0.9,0.5,1.7v3.7h-1.8
			V462.1z"/>
		<path class="st0" d="M341.5,465.2c-0.4,0.3-1,0.5-1.6,0.5c-0.5,0-1-0.1-1.4-0.4c-0.4-0.3-0.7-0.8-0.7-1.4c0-0.6,0.3-1.1,0.7-1.4
			c0.5-0.3,1-0.4,1.7-0.4c0.3,0,0.7,0,1,0.1v-0.2c0-0.3-0.1-0.5-0.2-0.6c-0.2-0.2-0.5-0.3-0.9-0.3c-0.7,0-1.3,0.2-1.7,0.5V460
			c0.5-0.2,1.2-0.5,2.1-0.5c0.8,0,1.5,0.2,2,0.6c0.4,0.4,0.7,0.9,0.7,1.6v2c0,0.3,0.1,0.5,0.4,0.5c0.1,0,0.2,0,0.3-0.1v1.4
			c-0.2,0.1-0.5,0.2-0.9,0.2C342.3,465.7,341.9,465.5,341.5,465.2L341.5,465.2z M341.2,463.2c-0.2-0.1-0.5-0.1-0.6-0.1
			c-0.5,0-0.9,0.1-0.9,0.6c0,0.4,0.3,0.6,0.8,0.6c0.3,0,0.6-0.1,0.8-0.2V463.2z"/>
		<path class="st0" d="M352.3,462.1c0-0.4-0.1-0.6-0.2-0.8c-0.2-0.2-0.4-0.3-0.6-0.3c-0.4,0-0.9,0.2-1.2,0.5c0,0.1,0,0.2,0,0.3v3.7
			h-1.8v-3.4c0-0.4-0.1-0.6-0.2-0.8c-0.2-0.2-0.4-0.3-0.6-0.3c-0.4,0-0.9,0.2-1.2,0.5v4h-1.8v-5.9h1.8v0.5l0,0
			c0.5-0.4,1.1-0.7,1.8-0.7c0.6,0,1.4,0.3,1.7,0.8c0.6-0.6,1.3-0.8,2.1-0.8c0.7,0,1.2,0.2,1.5,0.6c0.4,0.4,0.5,0.9,0.5,1.7v3.7h-1.8
			V462.1z"/>
		<path class="st0" d="M358.5,459.5c1.9,0,3.3,1.3,3.3,3.1s-1.4,3.1-3.3,3.1s-3.3-1.3-3.3-3.1S356.6,459.5,358.5,459.5z
			 M358.5,464.1c0.8,0,1.5-0.7,1.5-1.5s-0.6-1.5-1.5-1.5s-1.5,0.7-1.5,1.5S357.7,464.1,358.5,464.1z"/>
		<path class="st0" d="M366.8,465.4c-0.3,0.2-0.8,0.3-1.3,0.3c-0.6,0-1.2-0.2-1.5-0.6c-0.3-0.3-0.5-0.8-0.5-1.8v-2.2h-1v-1.5h1v-1.5
			l1.8-0.3v1.8h1.6v1.5h-1.6v2c0,0.6,0.1,1,0.7,1c0.3,0,0.6-0.1,0.9-0.2V465.4z"/>
		<path class="st0" d="M370.8,459.5c1.9,0,3.3,1.3,3.3,3.1s-1.4,3.1-3.3,3.1s-3.3-1.3-3.3-3.1S368.9,459.5,370.8,459.5z
			 M370.8,464.1c0.8,0,1.5-0.7,1.5-1.5s-0.6-1.5-1.5-1.5s-1.5,0.7-1.5,1.5S369.9,464.1,370.8,464.1z"/>
	</g>
</g>
<g id="Hiromaru">
	<linearGradient id="Circle_1_" gradientUnits="userSpaceOnUse" x1="99.5" y1="180" x2="399.5" y2="180">
		<stop  offset="0" style="stop-color:#EE7E77"/>
		<stop  offset="0.5" style="stop-color:#E7334C"/>
		<stop  offset="1" style="stop-color:#DA0439"/>
	</linearGradient>
	<circle id="Circle" class="st1" cx="249.5" cy="180" r="150"/>
	<g id="PresentBox">
		<polygon class="st2" points="167,252.7 246,285.7 246,224.5 167,191.4 		"/>
		<polygon class="st2" points="251,286.3 332.5,252 333,252 333,190.1 251,224.5 		"/>
		<path class="st3" d="M347.3,138.8l-22.3-9.5c-2.1,2-5.2,3.8-9.5,4.5c-0.7,0.1-1.6,0.2-2.7,0.3l24.8,10.5l-19.7,8.3
			c2.4,1.6,4.4,2.8,5.7,3.6c0.2,0.1,0.4,0.3,0.6,0.4l16.9-7.2V180l-37.3,15.8c-0.1,0.6-0.3,1.1-0.4,1.3c-1.2,4-4.9,6.6-9,6.6
			c-2,0-4.2-0.6-5.8-1.7L251,217.8v-30.2l18.2-7.6c-1.3-1.7-2.3-3.4-3.5-5.1l-17.2,7.3l-14.9-6.3c-1.2,1.7-2.2,3.4-3.5,5.1l15.8,6.6
			v30.2l-35.7-15c-1.3,0.6-2.8,0.9-4.2,0.9c-4,0-7.9-2.6-9.2-6.4L167,184.8v-0.2l-8-3.5v-30l16.1,6.7c0.5-0.5,1.1-0.9,1.7-1.2
			c1.1-0.7,2.7-1.6,4.5-2.8l-19.1-8.1l27.1-11.5c-2.4-0.1-3.6-0.2-4.4-0.4c-4-0.7-6.9-2.2-9-4L150,140.7v46.5l8,3.5v68.1l91.1,38.5
			l92.9-39.2v-68.2l8-3.5v-46.5L347.3,138.8z M246,285.7l-79-33v-61.3l79,33V285.7z M333,252h-0.5L251,286.3v-61.9l82-34.3V252z"/>
		<path class="st3" d="M186.2,126c5.3,0.9,26.4-0.2,42.1-1.2c-16.1,18.6-39.6,33.9-47.2,38.6c-1.6,1-0.8,2.3,0.1,2.7
			c1,0.3,17.1,7.4,17.1,7.4c0.9,0.4,1.6,1.2,1.9,2.2c0,0,4,17.6,4.5,19c0.5,1.4,2,1.2,2.7,0.5c25.7-26.4,37.1-52,41.8-65.4
			c0.3,0,0.7,0.1,1,0.1c0.3,0,0.7,0,1-0.1c4.7,13.4,16.1,39,41.8,65.4c0.7,0.7,2.3,1,2.7-0.5c0.5-1.4,4.5-19,4.5-19
			c0.2-1,0.9-1.8,1.9-2.2c0,0,16.1-7.1,17.1-7.4c1-0.3,1.7-1.7,0.1-2.7c-7.6-4.7-31.2-20-47.3-38.7c15.4,1,36.8,2.2,42.1,1.3
			c8.6-1.4,9.1-9.5,8.1-12.9c-0.7-2.4-8.6-22.7-16.2-31.5c-3-3.5-9.1-5.7-13.4-2.4c-8.4,6.5-21.5,17.3-28.6,23.1
			c-1.8-4.4-5.6-7.8-13.9-7.8c-8.4,0-12.3,3.5-14,8c-6.4-5.4-19.7-16.4-28.5-23.3c-4.3-3.3-10.3-1.1-13.4,2.4
			c-7.6,8.8-15.5,29.1-16.2,31.5C177.1,116.4,177.6,124.5,186.2,126z"/>
	</g>
</g>
</svg>
