<svg xmlns="http://www.w3.org/2000/svg">
 <g>
  <path fill="#fec0cb" d="m181,0c0,0 -40,0 -40,0c0,0 0,131.14 0,131.14c0,7.27 -2.93,10.91 -8.78,10.91c-3.47,0 -5.58,-2.27 -6.31,-6.82c0,0 -33.46,-98.28 -33.46,-98.28c0,0 0.27,0 0.27,0c-3.47,-10.92 -9.28,-19.48 -17.42,-25.67c-8.14,-6.19 -17.06,-9.28 -26.75,-9.28c-6.76,0 -13.12,1.09 -19.07,3.28c-5.93,2.18 -11.1,5.27 -15.5,9.27c-4.38,4 -7.81,8.86 -10.28,14.59c-2.47,5.73 -3.7,12.05 -3.7,18.95c0,0 0,133.91 0,133.91c0,0 40,0 40,0c0,0 0,-131.12 0,-131.12c0,-7.29 2.93,-10.93 8.78,-10.93c3.47,0 5.57,2.28 6.31,6.83c0,0 33.19,98.28 33.19,98.28c3.66,10.92 9.46,19.47 17.41,25.66c7.95,6.19 16.88,9.28 26.76,9.28c6.76,0 13.11,-1.09 19.05,-3.28c5.95,-2.18 11.11,-5.27 15.5,-9.27c4.39,-4 7.83,-8.86 10.3,-14.59c2.47,-5.73 3.7,-12.05 3.7,-18.95c0,0 0,-133.91 0,-133.91z"/>
 </g>
</svg>