<svg xmlns="http://www.w3.org/2000/svg">
 <g>
  <path d="m211.285,366c0,0 -38.93,-64.52 -38.93,-64.52c0,0 -2.19,0 -2.19,0c0,0 0,65.52 0,65.52c0,0 1,0 1,0c0,0 0,-64.53 0,-64.53c0,0 0.88,0 0.88,0c0,0 38.93,64.53 38.93,64.53c0,0 2.19,0 2.19,0c0,0 0,-65.52 0,-65.52c0,0 -1,0 -1,0c0,0 0,64.52 0,64.52c0,0 -0.88,0 -0.88,0zm25.88,-19c0,0 36.36,0 36.36,0c0,0 0,-0.45 0,-0.45c0,-15.7 -5.93,-23.55 -17.78,-23.55c-1.9,0 -3.7,0.21 -5.42,0.64c-1.72,0.42 -3.47,1.15 -5.25,2.2c-1.78,1.06 -3.29,2.46 -4.53,4.21c-1.25,1.74 -2.29,4.11 -3.13,7.12c-0.84,3 -1.25,6.46 -1.25,10.38c0,16.3 7,24.45 21,24.45c4.8,0 9.33,-0.87 13.59,-2.61c0,0 0,-1.06 0,-1.06c-4.03,1.78 -8.56,2.67 -13.59,2.67c-13.34,0 -20,-8 -20,-24zm18.17,-23c11.02,0 16.65,7.34 16.89,22c0,0 -35.47,0 -35.47,0c0.48,-14.66 6.68,-22 18.58,-22zm71.03,7.36c-3.18,-4.24 -7.73,-6.36 -13.64,-6.36c-3.75,0 -7.07,0.86 -9.97,2.58c-2.89,1.71 -5.13,4.07 -6.71,7.08c0,0 -0.88,0 -0.88,0c0,0 0,-8.66 0,-8.66c0,0 -1,0 -1,0c0,0 0,67.11 0,67.11c0,0 1,0 1,0c0,0 0,-28.67 0,-28.67c0,0 0.88,0 0.88,0c1.58,3.01 3.82,5.36 6.71,7.04c2.9,1.68 6.22,2.52 9.97,2.52c5.85,0 10.39,-2.12 13.61,-6.36c3.22,-4.24 4.83,-10.27 4.83,-18.09c0,-7.89 -1.6,-13.95 -4.8,-18.19zm-0.75,35.56c-3.03,4.06 -7.35,6.08 -12.95,6.08c-5.02,0 -9.2,-1.53 -12.52,-4.59c-3.32,-3.07 -4.98,-6.76 -4.98,-11.08c0,0 0,-15.66 0,-15.66c0,-4.38 1.66,-8.09 4.98,-11.12c3.32,-3.03 7.5,-4.55 12.52,-4.55c5.66,0 9.98,2 12.98,5.98c3.01,4 4.52,9.83 4.52,17.52c0,7.56 -1.52,13.37 -4.55,17.42zm27.55,-65.92c0,0 -1,0 -1,0c0,0 0,67.39 0,67.39c0,0 1,0 1,0c0,0 0,-31.37 0,-31.37c0,-3.2 1.96,-6.5 5.89,-9.91c3.94,-3.41 7.9,-5.11 11.89,-5.11c4.9,0 8.49,1.29 10.78,3.86c2.29,2.57 3.44,7.51 3.44,14.8c0,0 0,27.73 0,27.73c0,0 1,0 1,0c0,0 0,-27.73 0,-27.73c0,-7.17 -1.18,-12.24 -3.55,-15.21c-2.35,-2.97 -6.22,-4.45 -11.61,-4.45c-3.16,0 -6.33,1.06 -9.5,3.17c-3.16,2.11 -5.65,4.64 -7.45,7.6c0,0 -0.89,0 -0.89,0c0,0 0,-30.77 0,-30.77zm54.84,21.62c0,0 -1.06,0 -1.06,0c0,0 20.17,46.83 20.17,46.83c-3.02,7.35 -6.18,12.44 -9.47,15.28c-3.29,2.85 -7.24,4.27 -11.86,4.27c0,0 0,1 0,1c4.79,0 8.95,-1.52 12.47,-4.55c3.53,-3.02 6.84,-8.44 9.93,-16.26c0,0 19.28,-46.57 19.28,-46.57c0,0 -1.07,0 -1.07,0c0,0 -18.39,44.88 -18.39,44.88c0,0 -0.72,0 -0.72,0c0,0 -19.28,-44.88 -19.28,-44.88zm116.75,-16.46c3.74,1.43 6.24,3.31 7.5,5.62c1.27,2.31 1.91,5.24 1.91,8.78c0,6.36 -1.93,11.02 -5.78,13.99c-3.86,2.97 -9.91,4.45 -18.16,4.45c0,0 -13.06,0 -13.06,0c0,0 0,-35 0,-35c0,0 12.19,0 12.19,0c6.53,0 11.66,0.72 15.4,2.16zm-14.51,33.84c8.47,0 14.75,-1.56 18.81,-4.69c4.07,-3.13 6.11,-8.04 6.11,-14.72c0,-6.19 -1.99,-10.67 -5.97,-13.43c-3.98,-2.77 -10.6,-4.16 -19.86,-4.16c0,0 -13.17,0 -13.17,0c0,0 0,66.16 0,66.16c0,0 1,0 1,0c0,0 0,-29.16 0,-29.16c0,0 13.08,0 13.08,0zm44.92,-18c0,0 -1,0 -1,0c0,0 0,46.5 0,46.5c0,0 1,0 1,0c0,0 0,-24.09 0,-24.09c0,-6.29 2.09,-11.42 6.27,-15.41c4.17,-4 9.52,-6 16.04,-6c0,0 1.42,0 1.42,0c0,0 0,-1 0,-1c0,0 -1.42,0 -1.42,0c-5.03,0 -9.4,1.16 -13.11,3.47c-3.7,2.3 -6.47,5.59 -8.31,9.86c0,0 -0.89,0 -0.89,0c0,0 0,-13.33 0,-13.33zm44,26.5c0,-7.56 1.63,-13.37 4.91,-17.42c3.28,-4.05 7.97,-6.08 14.09,-6.08c6.11,0 10.8,2.03 14.08,6.08c3.28,4.05 4.92,9.86 4.92,17.42c0,7.56 -1.64,13.37 -4.92,17.42c-3.28,4.06 -7.97,6.08 -14.08,6.08c-6.12,0 -10.82,-2.07 -14.12,-6.22c-3.26,-3.96 -4.88,-9.72 -4.88,-17.28zm39,0.05c0,-7.82 -1.75,-13.87 -5.23,-18.14c-3.5,-4.27 -8.42,-6.41 -14.77,-6.41c-6.36,0 -11.28,2.14 -14.77,6.41c-3.49,4.27 -5.23,10.32 -5.23,18.14c0,7.82 1.74,13.85 5.23,18.09c3.49,4.24 8.41,6.36 14.77,6.36c6.35,0 11.24,-2.1 14.67,-6.31c3.55,-4.27 5.33,-10.32 5.33,-18.14zm28,22.54c0,6.52 -1.12,10.8 -3.38,12.85c-2.24,2.04 -6.87,3.06 -13.85,3.06c0,0 0,1 0,1c7.28,0 12.14,-1.12 14.57,-3.34c2.44,-2.23 3.66,-6.75 3.66,-13.57c0,0 0,-49.57 0,-49.57c0,0 -1,0 -1,0c0,0 0,49.57 0,49.57zm1,-63.09c0,0 0,-8 0,-8c0,0 -1,0 -1,0c0,0 0,8 0,8c0,0 1,0 1,0zm26,39c0,0 36.36,0 36.36,0c0,0 0,-0.45 0,-0.45c0,-15.7 -5.93,-23.55 -17.78,-23.55c-1.9,0 -3.7,0.21 -5.42,0.64c-1.72,0.42 -3.47,1.15 -5.25,2.2c-1.78,1.06 -3.29,2.46 -4.53,4.21c-1.25,1.74 -2.29,4.11 -3.13,7.12c-0.84,3 -1.25,6.46 -1.25,10.38c0,16.3 7,24.45 21,24.45c4.8,0 9.33,-0.87 13.59,-2.61c0,0 0,-1.06 0,-1.06c-4.03,1.78 -8.56,2.67 -13.59,2.67c-13.34,0 -20,-8 -20,-24zm18.17,-23c11.02,0 16.65,7.34 16.89,22c0,0 -35.47,0 -35.47,0c0.48,-14.66 6.68,-22 18.58,-22zm67.21,2.22c0,0 0,-1.06 0,-1.06c-3.97,-1.44 -8.06,-2.16 -12.27,-2.16c-6.4,0 -11.35,2.08 -14.86,6.23c-3.5,4.15 -5.25,10.25 -5.25,18.32c0,8.12 1.8,14.23 5.39,18.33c3.59,4.08 8.8,6.12 15.61,6.12c4.08,0 8.02,-0.72 11.81,-2.16c0,0 0,-1.07 0,-1.07c-3.55,1.49 -7.49,2.23 -11.81,2.23c-13.34,0 -20,-7.83 -20,-23.5c0,-3 0.27,-5.74 0.8,-8.23c0.54,-2.49 1.46,-4.97 2.76,-7.43c1.3,-2.46 3.29,-4.39 5.96,-5.76c2.66,-1.38 5.86,-2.08 9.59,-2.08c4.44,0 8.53,0.74 12.27,2.22zm51.29,0.78c0,0 -18.67,0 -18.67,0c0,0 0,-17.33 0,-17.33c0,0 -1,0 -1,0c0,0 0,17.33 0,17.33c0,0 -11.38,0 -11.38,0c0,0 0,1 0,1c0,0 11.38,0 11.38,0c0,0 0,31.73 0,31.73c0,5.14 0.85,8.64 2.55,10.49c1.69,1.85 4.83,2.78 9.39,2.78c2.54,0 4.82,-0.43 6.84,-1.28c0,0 0,-1.06 0,-1.06c-2.02,0.89 -4.3,1.34 -6.84,1.34c-4.15,0 -7.01,-0.8 -8.58,-2.41c-1.57,-1.61 -2.36,-4.92 -2.36,-9.93c0,0 0,-31.66 0,-31.66c0,0 18.67,0 18.67,0c0,0 0,-1 0,-1z" fill="#f2b7c2"/>
  <path d="m277.5,440.28c0,0 0,-10.28 0,-10.28c0,0 -1,0 -1,0c0,0 0,10.28 0,10.28c0,0 1,0 1,0zm8,0c0,0 0,-10.28 0,-10.28c0,0 -1,0 -1,0c0,0 0,10.28 0,10.28c0,0 1,0 1,0zm29.52,26.19c0,0 -21.32,-34.73 -21.32,-34.73c0,0 -1.2,0 -1.2,0c0,0 0,35.73 0,35.73c0,0 1,0 1,0c0,0 0,-34.75 0,-34.75c0,0 0.48,0 0.48,0c0,0 21.32,34.75 21.32,34.75c0,0 1.2,0 1.2,0c0,0 0,-35.73 0,-35.73c0,0 -1,0 -1,0c0,0 0,34.73 0,34.73c0,0 -0.48,0 -0.48,0zm7.48,-12c0,0 19.58,0 19.58,0c0,0 0,-0.25 0,-0.25c0,-8.5 -3.2,-12.75 -9.58,-12.75c-1.02,0 -2,0.12 -2.92,0.36c-0.93,0.23 -1.87,0.64 -2.83,1.22c-0.95,0.57 -1.76,1.34 -2.44,2.31c-0.67,0.96 -1.3,2.27 -1.9,3.92c-0.61,1.66 -0.91,3.57 -0.91,5.72c0,8.98 3.92,13.47 11.77,13.47c2.58,0 5.02,-0.62 7.32,-1.86c0,0 0,-0.58 0,-0.58c-2.18,0.96 -4.62,1.44 -7.32,1.44c-7.18,0 -10.77,-4.33 -10.77,-13zm10.02,-12c5.93,0 8.96,3.67 9.09,11c0,0 -19.09,0 -19.09,0c0.25,-7.33 3.58,-11 10,-11zm33.32,2.52c-1.77,-2.35 -4.3,-3.52 -7.59,-3.52c-2.07,0 -3.92,0.48 -5.53,1.42c-1.61,0.94 -2.85,2.24 -3.74,3.91c0,0 -0.48,0 -0.48,0c0,0 0,-4.78 0,-4.78c0,0 -1,0 -1,0c0,0 0,36.75 0,36.75c0,0 1,0 1,0c0,0 0,-15.57 0,-15.57c0,0 0.48,0 0.48,0c0.89,1.66 2.13,2.95 3.74,3.88c1.61,0.93 3.46,1.39 5.53,1.39c3.26,0 5.78,-1.16 7.56,-3.5c1.79,-2.34 2.69,-5.66 2.69,-9.97c0,-4.34 -0.89,-7.68 -2.66,-10.01zm-0.81,19.25c-1.65,2.15 -3.99,3.23 -7.03,3.23c-2.72,0 -4.98,-0.81 -6.8,-2.44c-1.8,-1.63 -2.7,-3.6 -2.7,-5.89c0,0 0,-8.34 0,-8.34c0,-2.32 0.9,-4.29 2.7,-5.91c1.82,-1.61 4.08,-2.42 6.8,-2.42c3.07,0 5.42,1.06 7.05,3.19c1.63,2.12 2.45,5.23 2.45,9.31c0,4.02 -0.82,7.11 -2.47,9.27zm9.47,-33.54c0,0 -1,0 -1,0c0,0 0,36.75 0,36.75c0,0 1,0 1,0c0,0 0,-16.89 0,-16.89c0,-1.72 1.04,-3.5 3.12,-5.34c2.1,-1.83 4.21,-2.75 6.33,-2.75c2.6,0 4.5,0.7 5.72,2.08c1.22,1.38 1.83,4.04 1.83,7.97c0,0 0,14.93 0,14.93c0,0 1,0 1,0c0,0 0,-14.93 0,-14.93c0,-3.85 -0.65,-6.66 -1.94,-8.41c-1.28,-1.76 -3.39,-2.64 -6.33,-2.64c-1.73,0 -3.46,0.65 -5.18,1.94c-1.73,1.29 -3.09,2.73 -4.07,4.33c0,0 -0.48,0 -0.48,0c0,0 0,-17.04 0,-17.04zm24.69,12.02c0,0 -0.58,0 -0.58,0c0,0 10.86,25.22 10.86,25.22c-1.63,3.96 -3.33,6.7 -5.09,8.23c-1.78,1.53 -3.91,2.3 -6.4,2.3c0,0 0,1 0,1c2.59,0 4.82,-0.9 6.72,-2.69c1.91,-1.78 3.69,-4.77 5.35,-8.98c0,0 10.39,-25.08 10.39,-25.08c0,0 -0.58,0 -0.58,0c0,0 -9.91,24.17 -9.91,24.17c0,0 -0.39,0 -0.39,0c0,0 -10.37,-24.17 -10.37,-24.17zm27.31,-2.44c0,0 0,-10.28 0,-10.28c0,0 -1,0 -1,0c0,0 0,10.28 0,10.28c0,0 1,0 1,0zm8,0c0,0 0,-10.28 0,-10.28c0,0 -1,0 -1,0c0,0 0,10.28 0,10.28c0,0 1,0 1,0zm34,26.96c0,0 0,-24.99 0,-24.99c0,0 -1,0 -1,0c0,0 0,24.99 0,24.99c0,0 1,0 1,0zm0,-32.77c0,0 0,-4 0,-4c0,0 -1,0 -1,0c0,0 0,4 0,4c0,0 1,0 1,0zm10.8,17.56c1.19,1.03 3.25,1.85 6.15,2.47c3.16,0.62 5.29,1.5 6.39,2.66c1.11,1.15 1.66,2.51 1.66,4.06c0,1.93 -0.72,3.45 -2.16,4.58c-1.43,1.12 -3.38,1.67 -5.84,1.67c-2.91,0 -5.57,-0.64 -8,-1.92c0,0 0,0.53 0,0.53c2.57,1.59 5.32,2.39 8.25,2.39c2.71,0 4.84,-0.6 6.41,-1.8c1.56,-1.2 2.34,-2.86 2.34,-4.95c0,-1.91 -0.67,-3.45 -2.02,-4.61c-1.34,-1.16 -3.48,-2.05 -6.4,-2.67c-2.88,-0.58 -4.86,-1.38 -5.96,-2.39c-1.08,-1.01 -1.62,-2.3 -1.62,-3.86c0,-1.79 0.68,-3.19 2.03,-4.2c1.36,-1.01 3.22,-1.52 5.58,-1.52c2.68,0 5.29,0.5 7.84,1.48c0,0 0,-0.62 0,-0.62c-2.48,-1.24 -5.09,-1.86 -7.84,-1.86c-2.46,0 -4.51,0.57 -6.16,1.72c-1.63,1.14 -2.45,2.65 -2.45,4.53c0,1.86 0.6,3.29 1.8,4.31zm61.25,-8.56c0,0 -10.05,0 -10.05,0c0,0 0,-9.33 0,-9.33c0,0 -1,0 -1,0c0,0 0,9.33 0,9.33c0,0 -6.12,0 -6.12,0c0,0 0,1 0,1c0,0 6.12,0 6.12,0c0,0 0,16.92 0,16.92c0,2.74 0.53,4.61 1.59,5.6c1.07,0.98 2.82,1.48 5.29,1.48c1.37,0 2.6,-0.39 3.68,-1.16c0,0 0,-0.56 0,-0.56c-1.08,0.48 -2.31,0.72 -3.68,0.72c-2.24,0 -3.77,-0.42 -4.61,-1.27c-0.85,-0.84 -1.27,-2.57 -1.27,-5.18c0,0 0,-16.55 0,-16.55c0,0 10.05,0 10.05,0c0,0 0,-1 0,-1zm7.95,-12.77c0,0 -1,0 -1,0c0,0 0,36.75 0,36.75c0,0 1,0 1,0c0,0 0,-16.89 0,-16.89c0,-1.72 1.04,-3.5 3.12,-5.34c2.1,-1.83 4.21,-2.75 6.33,-2.75c2.6,0 4.5,0.7 5.72,2.08c1.22,1.38 1.83,4.04 1.83,7.97c0,0 0,14.93 0,14.93c0,0 1,0 1,0c0,0 0,-14.93 0,-14.93c0,-3.85 -0.65,-6.66 -1.94,-8.41c-1.28,-1.76 -3.39,-2.64 -6.33,-2.64c-1.73,0 -3.46,0.65 -5.18,1.94c-1.73,1.29 -3.09,2.73 -4.07,4.33c0,0 -0.48,0 -0.48,0c0,0 0,-17.04 0,-17.04zm24,23.77c0,0 19.58,0 19.58,0c0,0 0,-0.25 0,-0.25c0,-8.5 -3.2,-12.75 -9.58,-12.75c-1.02,0 -2,0.12 -2.92,0.36c-0.93,0.23 -1.87,0.64 -2.83,1.22c-0.95,0.57 -1.76,1.34 -2.44,2.31c-0.67,0.96 -1.3,2.27 -1.9,3.92c-0.61,1.66 -0.91,3.57 -0.91,5.72c0,8.98 3.92,13.47 11.77,13.47c2.58,0 5.02,-0.62 7.32,-1.86c0,0 0,-0.58 0,-0.58c-2.18,0.96 -4.62,1.44 -7.32,1.44c-7.18,0 -10.77,-4.33 -10.77,-13zm10.02,-12c5.93,0 8.96,3.67 9.09,11c0,0 -19.09,0 -19.09,0c0.25,-7.33 3.58,-11 10,-11zm55.03,1c0,0 -10.05,0 -10.05,0c0,0 0,-9.33 0,-9.33c0,0 -1,0 -1,0c0,0 0,9.33 0,9.33c0,0 -6.12,0 -6.12,0c0,0 0,1 0,1c0,0 6.12,0 6.12,0c0,0 0,16.92 0,16.92c0,2.74 0.53,4.61 1.59,5.6c1.07,0.98 2.82,1.48 5.29,1.48c1.37,0 2.6,-0.39 3.68,-1.16c0,0 0,-0.56 0,-0.56c-1.08,0.48 -2.31,0.72 -3.68,0.72c-2.24,0 -3.77,-0.42 -4.61,-1.27c-0.85,-0.84 -1.27,-2.57 -1.27,-5.18c0,0 0,-16.55 0,-16.55c0,0 10.05,0 10.05,0c0,0 0,-1 0,-1zm5.95,11c0,0 19.58,0 19.58,0c0,0 0,-0.25 0,-0.25c0,-8.5 -3.2,-12.75 -9.58,-12.75c-1.02,0 -2,0.12 -2.92,0.36c-0.93,0.23 -1.87,0.64 -2.83,1.22c-0.95,0.57 -1.76,1.34 -2.44,2.31c-0.67,0.96 -1.3,2.27 -1.9,3.92c-0.61,1.66 -0.91,3.57 -0.91,5.72c0,8.98 3.92,13.47 11.77,13.47c2.58,0 5.02,-0.62 7.32,-1.86c0,0 0,-0.58 0,-0.58c-2.18,0.96 -4.62,1.44 -7.32,1.44c-7.18,0 -10.77,-4.33 -10.77,-13zm10.02,-12c5.93,0 8.96,3.67 9.09,11c0,0 -19.09,0 -19.09,0c0.25,-7.33 3.58,-11 10,-11zm31.98,25.5c0,0 1,0 1,0c0,0 0,-18.59 0,-18.59c0,-2.86 -0.7,-4.89 -2.08,-6.1c-1.38,-1.2 -3.56,-1.81 -6.53,-1.81c-3.28,0 -6.21,0.7 -8.8,2.09c0,0 0,0.58 0,0.58c2.59,-1.11 5.52,-1.67 8.8,-1.67c2.77,0 4.73,0.55 5.88,1.64c1.15,1.09 1.73,2.97 1.73,5.61c0,0 0,2.75 0,2.75c0,0 -3.75,0 -3.75,0c-2.25,0 -4.26,0.19 -6.02,0.56c-1.75,0.38 -3.13,0.85 -4.14,1.42c-1.01,0.57 -1.83,1.24 -2.47,2.02c-0.62,0.78 -1.05,1.56 -1.28,2.33c-0.23,0.76 -0.34,1.58 -0.34,2.45c0,2.24 0.64,4.01 1.92,5.3c1.29,1.28 3.07,1.92 5.35,1.92c2.37,0 4.43,-0.55 6.18,-1.66c1.76,-1.11 3.12,-2.7 4.07,-4.76c0,0 0.48,0 0.48,0c0,0 0,5.92 0,5.92zm0,-10.08c0,2.78 -0.99,5.06 -2.97,6.88c-1.98,1.8 -4.48,2.7 -7.48,2.7c-2.06,0 -3.66,-0.56 -4.82,-1.69c-1.15,-1.12 -1.73,-2.66 -1.73,-4.61c0,-5.13 4.45,-7.7 13.34,-7.7c0,0 3.66,0 3.66,0c0,0 0,4.42 0,4.42zm8,-15.42c0,0 -1,0 -1,0c0,0 0,24.98 0,24.98c0,0 1,0 1,0c0,0 0,-16.89 0,-16.89c0,-2.04 0.79,-3.89 2.36,-5.57c1.57,-1.68 3.28,-2.52 5.14,-2.52c2.26,0 3.91,0.71 4.94,2.14c1.04,1.42 1.56,3.72 1.56,6.91c0,0 0,15.93 0,15.93c0,0 1,0 1,0c0,0 0,-16.89 0,-16.89c0,-2.04 0.78,-3.89 2.34,-5.57c1.57,-1.68 3.27,-2.52 5.13,-2.52c2.3,0 3.96,0.73 4.98,2.19c1.03,1.45 1.55,3.73 1.55,6.86c0,0 0,15.93 0,15.93c0,0 1,0 1,0c0,0 0,-15.93 0,-15.93c0,-3.26 -0.59,-5.75 -1.78,-7.47c-1.19,-1.72 -3.02,-2.58 -5.49,-2.58c-1.53,0 -3,0.55 -4.42,1.64c-1.42,1.09 -2.49,2.47 -3.23,4.16c0,0 -0.44,0 -0.44,0c-0.78,-3.87 -3.08,-5.8 -6.89,-5.8c-1.4,0 -2.76,0.54 -4.08,1.61c-1.31,1.06 -2.37,2.36 -3.19,3.89c0,0 -0.48,0 -0.48,0c0,0 0,-4.5 0,-4.5zm-635,70.78c0,0 0,4.72 0,4.72c0,0 1,0 1,0c0,0 0,-37.27 0,-37.27c0,0 -1,0 -1,0c0,0 0,16.04 0,16.04c0,0 -0.47,0 -0.47,0c-0.87,-1.59 -2.08,-2.86 -3.64,-3.82c-1.55,-0.97 -3.27,-1.45 -5.16,-1.45c-3.12,0 -5.53,1.17 -7.21,3.52c-1.68,2.33 -2.52,5.67 -2.52,10.01c0,4.31 0.85,7.63 2.55,9.97c1.69,2.34 4.09,3.5 7.18,3.5c1.89,0 3.61,-0.47 5.16,-1.41c1.56,-0.94 2.77,-2.21 3.64,-3.81c0,0 0.47,0 0.47,0zm-15.7,-17.59c1.53,-2.13 3.75,-3.19 6.68,-3.19c2.41,0 4.51,0.78 6.32,2.34c1.8,1.57 2.7,3.39 2.7,5.47c0,0 0,9.33 0,9.33c0,2.12 -0.9,3.95 -2.7,5.52c-1.81,1.56 -3.91,2.34 -6.32,2.34c-2.89,0 -5.12,-1.08 -6.67,-3.23c-1.54,-2.16 -2.31,-5.25 -2.31,-9.27c0,-4.08 0.77,-7.19 2.3,-9.31zm23.7,8.81c0,0 19.58,0 19.58,0c0,0 0,-0.25 0,-0.25c0,-8.5 -3.2,-12.75 -9.58,-12.75c-1.02,0 -2,0.12 -2.92,0.36c-0.93,0.23 -1.87,0.64 -2.83,1.22c-0.95,0.57 -1.76,1.34 -2.44,2.31c-0.67,0.96 -1.3,2.27 -1.9,3.92c-0.61,1.66 -0.91,3.57 -0.91,5.72c0,8.98 3.92,13.47 11.77,13.47c2.58,0 5.02,-0.62 7.32,-1.86c0,0 0,-0.58 0,-0.58c-2.18,0.96 -4.62,1.44 -7.32,1.44c-7.18,0 -10.77,-4.33 -10.77,-13zm10.02,-12c5.93,0 8.96,3.67 9.09,11c0,0 -19.09,0 -19.09,0c0.25,-7.33 3.58,-11 10,-11zm14.95,-0.69c0,0 -0.63,0 -0.63,0c0,0 10.1,25.69 10.1,25.69c0,0 1.2,0 1.2,0c0,0 10.09,-25.69 10.09,-25.69c0,0 -0.62,0 -0.62,0c0,0 -9.91,24.69 -9.91,24.69c0,0 -0.37,0 -0.37,0c0,0 -9.86,-24.69 -9.86,-24.69zm26.03,12.69c0,0 19.58,0 19.58,0c0,0 0,-0.25 0,-0.25c0,-8.5 -3.2,-12.75 -9.58,-12.75c-1.02,0 -2,0.12 -2.92,0.36c-0.93,0.23 -1.87,0.64 -2.83,1.22c-0.95,0.57 -1.76,1.34 -2.44,2.31c-0.67,0.96 -1.3,2.27 -1.9,3.92c-0.61,1.66 -0.91,3.57 -0.91,5.72c0,8.98 3.92,13.47 11.77,13.47c2.58,0 5.02,-0.62 7.32,-1.86c0,0 0,-0.58 0,-0.58c-2.18,0.96 -4.62,1.44 -7.32,1.44c-7.18,0 -10.77,-4.33 -10.77,-13zm10.02,-12c5.93,0 8.96,3.67 9.09,11c0,0 -19.09,0 -19.09,0c0.25,-7.33 3.58,-11 10,-11zm19.98,24.77c0,0 0,-36.29 0,-36.29c0,0 -1,0 -1,0c0,0 0,36.29 0,36.29c0,0 1,0 1,0zm9,-12.27c0,-4.02 0.91,-7.11 2.72,-9.27c1.81,-2.15 4.4,-3.23 7.78,-3.23c3.38,0 5.97,1.08 7.78,3.23c1.81,2.16 2.72,5.25 2.72,9.27c0,4.02 -0.91,7.11 -2.72,9.27c-1.81,2.15 -4.4,3.23 -7.78,3.23c-3.38,0 -5.98,-1.1 -7.81,-3.3c-1.8,-2.11 -2.69,-5.18 -2.69,-9.2zm22,0.03c0,-4.31 -1.01,-7.64 -3.02,-10c-2,-2.35 -4.82,-3.53 -8.48,-3.53c-3.66,0 -6.49,1.18 -8.5,3.53c-2,2.36 -3,5.69 -3,10c0,4.31 1,7.63 3,9.97c2.01,2.34 4.84,3.5 8.5,3.5c3.66,0 6.47,-1.16 8.44,-3.48c2.04,-2.36 3.06,-5.68 3.06,-9.99zm24.34,-10.01c-1.77,-2.35 -4.3,-3.52 -7.59,-3.52c-2.07,0 -3.92,0.48 -5.53,1.42c-1.61,0.94 -2.85,2.24 -3.74,3.91c0,0 -0.48,0 -0.48,0c0,0 0,-4.78 0,-4.78c0,0 -1,0 -1,0c0,0 0,36.75 0,36.75c0,0 1,0 1,0c0,0 0,-15.57 0,-15.57c0,0 0.48,0 0.48,0c0.89,1.66 2.13,2.95 3.74,3.88c1.61,0.93 3.46,1.39 5.53,1.39c3.26,0 5.78,-1.16 7.56,-3.5c1.79,-2.34 2.69,-5.66 2.69,-9.97c0,-4.34 -0.89,-7.68 -2.66,-10.01zm-0.81,19.25c-1.65,2.15 -3.99,3.23 -7.03,3.23c-2.72,0 -4.98,-0.81 -6.8,-2.44c-1.8,-1.63 -2.7,-3.6 -2.7,-5.89c0,0 0,-8.34 0,-8.34c0,-2.32 0.9,-4.29 2.7,-5.91c1.82,-1.61 4.08,-2.42 6.8,-2.42c3.07,0 5.42,1.06 7.05,3.19c1.63,2.12 2.45,5.23 2.45,9.31c0,4.02 -0.82,7.11 -2.47,9.27zm13.47,3c0,0 0,-24.99 0,-24.99c0,0 -1,0 -1,0c0,0 0,24.99 0,24.99c0,0 1,0 1,0zm0,-32.77c0,0 0,-4 0,-4c0,0 -1,0 -1,0c0,0 0,4 0,4c0,0 1,0 1,0zm11,8c0,0 -1,0 -1,0c0,0 0,24.98 0,24.98c0,0 1,0 1,0c0,0 0,-16.89 0,-16.89c0,-1.85 1.02,-3.66 3.08,-5.43c2.05,-1.77 4.18,-2.66 6.39,-2.66c2.59,0 4.49,0.7 5.7,2.08c1.22,1.38 1.83,4.04 1.83,7.97c0,0 0,14.93 0,14.93c0,0 1,0 1,0c0,0 0,-14.93 0,-14.93c0,-3.85 -0.65,-6.66 -1.94,-8.41c-1.28,-1.76 -3.38,-2.64 -6.31,-2.64c-1.72,0 -3.45,0.62 -5.19,1.88c-1.74,1.24 -3.1,2.65 -4.08,4.24c0,0 -0.48,0 -0.48,0c0,0 0,-5.12 0,-5.12zm38.7,22.59c1.29,0.39 2.23,0.94 2.8,1.64c0.58,0.7 0.98,1.37 1.19,2.02c0.2,0.66 0.31,1.41 0.31,2.27c0,2.28 -0.97,4.09 -2.91,5.45c-1.93,1.35 -4.55,2.03 -7.86,2.03c-3.61,0 -6.69,-0.69 -9.23,-2.06c0,0 0,0.53 0,0.53c2.86,1.69 6.02,2.53 9.45,2.53c3.53,0 6.34,-0.8 8.43,-2.39c2.08,-1.59 3.12,-3.64 3.12,-6.13c0,-4.98 -3.21,-7.48 -9.64,-7.48c-1.9,0 -3.51,-0.09 -4.83,-0.27c-1.31,-0.17 -2.29,-0.46 -2.92,-0.85c-0.63,-0.41 -1.06,-0.8 -1.28,-1.18c-0.22,-0.37 -0.33,-0.82 -0.33,-1.36c0,-1.11 0.61,-2.14 1.83,-3.11c1.8,1.18 3.99,1.77 6.56,1.77c2.97,0 5.31,-0.74 7.03,-2.22c1.72,-1.48 2.58,-3.48 2.58,-6.01c0,0 0,-8.24 0,-8.24c0,0 -1,0 -1,0c0,0 0,4.3 0,4.3c0,0 -0.48,0 -0.48,0c-1.7,-3.22 -4.8,-4.83 -9.29,-4.83c-2.74,0 -4.96,0.81 -6.67,2.44c-1.71,1.62 -2.56,3.73 -2.56,6.33c0,2.46 0.98,4.51 2.95,6.14c-1.3,1.1 -1.95,2.29 -1.95,3.56c0,1.56 0.77,2.71 2.31,3.44c1.54,0.73 4.07,1.09 7.58,1.09c1.93,0 3.53,0.2 4.81,0.59zm-12.31,-9.51c-1.59,-1.29 -2.39,-3.07 -2.39,-5.35c0,-2.28 0.8,-4.14 2.39,-5.57c1.6,-1.44 3.64,-2.16 6.11,-2.16c2.85,0 5.15,0.7 6.89,2.11c1.74,1.41 2.61,3.29 2.61,5.64c0,2.23 -0.81,4 -2.42,5.3c-1.62,1.3 -3.8,1.95 -6.55,1.95c-2.82,0 -5.04,-0.64 -6.64,-1.92zm49.61,-13.08c0,0 -1,0 -1,0c0,0 0,24.98 0,24.98c0,0 1,0 1,0c0,0 0,-16.89 0,-16.89c0,-1.85 1.02,-3.66 3.08,-5.43c2.05,-1.77 4.18,-2.66 6.39,-2.66c2.59,0 4.49,0.7 5.7,2.08c1.22,1.38 1.83,4.04 1.83,7.97c0,0 0,14.93 0,14.93c0,0 1,0 1,0c0,0 0,-14.93 0,-14.93c0,-3.85 -0.65,-6.66 -1.94,-8.41c-1.28,-1.76 -3.38,-2.64 -6.31,-2.64c-1.72,0 -3.45,0.62 -5.19,1.88c-1.74,1.24 -3.1,2.65 -4.08,4.24c0,0 -0.48,0 -0.48,0c0,0 0,-5.12 0,-5.12zm24,12c0,0 19.58,0 19.58,0c0,0 0,-0.25 0,-0.25c0,-8.5 -3.2,-12.75 -9.58,-12.75c-1.02,0 -2,0.12 -2.92,0.36c-0.93,0.23 -1.87,0.64 -2.83,1.22c-0.95,0.57 -1.76,1.34 -2.44,2.31c-0.67,0.96 -1.3,2.27 -1.9,3.92c-0.61,1.66 -0.91,3.57 -0.91,5.72c0,8.98 3.92,13.47 11.77,13.47c2.58,0 5.02,-0.62 7.32,-1.86c0,0 0,-0.58 0,-0.58c-2.18,0.96 -4.62,1.44 -7.32,1.44c-7.18,0 -10.77,-4.33 -10.77,-13zm10.02,-12c5.93,0 8.96,3.67 9.09,11c0,0 -19.09,0 -19.09,0c0.25,-7.33 3.58,-11 10,-11zm33.75,24.06c0,0 0.57,0 0.57,0c0,0 -9.23,-12.54 -9.23,-12.54c0,0 9,-12.24 9,-12.24c0,0 -0.63,0 -0.63,0c0,0 -8.51,11.72 -8.51,11.72c0,0 -0.39,0 -0.39,0c0,0 -8.52,-11.72 -8.52,-11.72c0,0 -0.61,0 -0.61,0c0,0 9.03,12.24 9.03,12.24c0,0 -9.28,12.54 -9.28,12.54c0,0 0.63,0 0.63,0c0,0 8.75,-12.06 8.75,-12.06c0,0 0.39,0 0.39,0c0,0 8.8,12.06 8.8,12.06zm24.28,-23.06c0,0 -10.05,0 -10.05,0c0,0 0,-9.33 0,-9.33c0,0 -1,0 -1,0c0,0 0,9.33 0,9.33c0,0 -6.12,0 -6.12,0c0,0 0,1 0,1c0,0 6.12,0 6.12,0c0,0 0,16.92 0,16.92c0,2.74 0.53,4.61 1.59,5.6c1.07,0.98 2.82,1.48 5.29,1.48c1.37,0 2.6,-0.39 3.68,-1.16c0,0 0,-0.56 0,-0.56c-1.08,0.48 -2.31,0.72 -3.68,0.72c-2.24,0 -3.77,-0.42 -4.61,-1.27c-0.85,-0.84 -1.27,-2.57 -1.27,-5.18c0,0 0,-16.55 0,-16.55c0,0 10.05,0 10.05,0c0,0 0,-1 0,-1zm21.65,11c0,0 0,-1 0,-1c0,0 -13.25,0 -13.25,0c0,0 0,1 0,1c0,0 13.25,0 13.25,0zm22,10.59c1.29,0.39 2.23,0.94 2.8,1.64c0.58,0.7 0.98,1.37 1.19,2.02c0.2,0.66 0.31,1.41 0.31,2.27c0,2.28 -0.97,4.09 -2.91,5.45c-1.93,1.35 -4.55,2.03 -7.86,2.03c-3.61,0 -6.69,-0.69 -9.23,-2.06c0,0 0,0.53 0,0.53c2.86,1.69 6.02,2.53 9.45,2.53c3.53,0 6.34,-0.8 8.43,-2.39c2.08,-1.59 3.12,-3.64 3.12,-6.13c0,-4.98 -3.21,-7.48 -9.64,-7.48c-1.9,0 -3.51,-0.09 -4.83,-0.27c-1.31,-0.17 -2.29,-0.46 -2.92,-0.85c-0.63,-0.41 -1.06,-0.8 -1.28,-1.18c-0.22,-0.37 -0.33,-0.82 -0.33,-1.36c0,-1.11 0.61,-2.14 1.83,-3.11c1.8,1.18 3.99,1.77 6.56,1.77c2.97,0 5.31,-0.74 7.03,-2.22c1.72,-1.48 2.58,-3.48 2.58,-6.01c0,0 0,-8.24 0,-8.24c0,0 -1,0 -1,0c0,0 0,4.3 0,4.3c0,0 -0.48,0 -0.48,0c-1.7,-3.22 -4.8,-4.83 -9.29,-4.83c-2.74,0 -4.96,0.81 -6.67,2.44c-1.71,1.62 -2.56,3.73 -2.56,6.33c0,2.46 0.98,4.51 2.95,6.14c-1.3,1.1 -1.95,2.29 -1.95,3.56c0,1.56 0.77,2.71 2.31,3.44c1.54,0.73 4.07,1.09 7.58,1.09c1.93,0 3.53,0.2 4.81,0.59zm-12.31,-9.51c-1.59,-1.29 -2.39,-3.07 -2.39,-5.35c0,-2.28 0.8,-4.14 2.39,-5.57c1.6,-1.44 3.64,-2.16 6.11,-2.16c2.85,0 5.15,0.7 6.89,2.11c1.74,1.41 2.61,3.29 2.61,5.64c0,2.23 -0.81,4 -2.42,5.3c-1.62,1.3 -3.8,1.95 -6.55,1.95c-2.82,0 -5.04,-0.64 -6.64,-1.92zm21.61,-1.08c0,0 19.58,0 19.58,0c0,0 0,-0.25 0,-0.25c0,-8.5 -3.2,-12.75 -9.58,-12.75c-1.02,0 -2,0.12 -2.92,0.36c-0.93,0.23 -1.87,0.64 -2.83,1.22c-0.95,0.57 -1.76,1.34 -2.44,2.31c-0.67,0.96 -1.3,2.27 -1.9,3.92c-0.61,1.66 -0.91,3.57 -0.91,5.72c0,8.98 3.92,13.47 11.77,13.47c2.58,0 5.02,-0.62 7.32,-1.86c0,0 0,-0.58 0,-0.58c-2.18,0.96 -4.62,1.44 -7.32,1.44c-7.18,0 -10.77,-4.33 -10.77,-13zm10.02,-12c5.93,0 8.96,3.67 9.09,11c0,0 -19.09,0 -19.09,0c0.25,-7.33 3.58,-11 10,-11zm16.98,0c0,0 -1,0 -1,0c0,0 0,24.98 0,24.98c0,0 1,0 1,0c0,0 0,-16.89 0,-16.89c0,-1.85 1.02,-3.66 3.08,-5.43c2.05,-1.77 4.18,-2.66 6.39,-2.66c2.59,0 4.49,0.7 5.7,2.08c1.22,1.38 1.83,4.04 1.83,7.97c0,0 0,14.93 0,14.93c0,0 1,0 1,0c0,0 0,-14.93 0,-14.93c0,-3.85 -0.65,-6.66 -1.94,-8.41c-1.28,-1.76 -3.38,-2.64 -6.31,-2.64c-1.72,0 -3.45,0.62 -5.19,1.88c-1.74,1.24 -3.1,2.65 -4.08,4.24c0,0 -0.48,0 -0.48,0c0,0 0,-5.12 0,-5.12zm24,12c0,0 19.58,0 19.58,0c0,0 0,-0.25 0,-0.25c0,-8.5 -3.2,-12.75 -9.58,-12.75c-1.02,0 -2,0.12 -2.92,0.36c-0.93,0.23 -1.87,0.64 -2.83,1.22c-0.95,0.57 -1.76,1.34 -2.44,2.31c-0.67,0.96 -1.3,2.27 -1.9,3.92c-0.61,1.66 -0.91,3.57 -0.91,5.72c0,8.98 3.92,13.47 11.77,13.47c2.58,0 5.02,-0.62 7.32,-1.86c0,0 0,-0.58 0,-0.58c-2.18,0.96 -4.62,1.44 -7.32,1.44c-7.18,0 -10.77,-4.33 -10.77,-13zm10.02,-12c5.93,0 8.96,3.67 9.09,11c0,0 -19.09,0 -19.09,0c0.25,-7.33 3.58,-11 10,-11zm16.98,0c0,0 -1,0 -1,0c0,0 0,25.5 0,25.5c0,0 1,0 1,0c0,0 0,-12.97 0,-12.97c0,-3.38 1.12,-6.15 3.38,-8.3c2.24,-2.15 5.12,-3.23 8.64,-3.23c0,0 0.76,0 0.76,0c0,0 0,-1 0,-1c0,0 -0.76,0 -0.76,0c-2.72,0 -5.07,0.62 -7.07,1.88c-1.99,1.24 -3.48,3 -4.47,5.29c0,0 -0.48,0 -0.48,0c0,0 0,-7.17 0,-7.17zm37,25.5c0,0 1,0 1,0c0,0 0,-18.59 0,-18.59c0,-2.86 -0.7,-4.89 -2.08,-6.1c-1.38,-1.2 -3.56,-1.81 -6.53,-1.81c-3.28,0 -6.21,0.7 -8.8,2.09c0,0 0,0.58 0,0.58c2.59,-1.11 5.52,-1.67 8.8,-1.67c2.77,0 4.73,0.55 5.88,1.64c1.15,1.09 1.73,2.97 1.73,5.61c0,0 0,2.75 0,2.75c0,0 -3.75,0 -3.75,0c-2.25,0 -4.26,0.19 -6.02,0.56c-1.75,0.38 -3.13,0.85 -4.14,1.42c-1.01,0.57 -1.83,1.24 -2.47,2.02c-0.62,0.78 -1.05,1.56 -1.28,2.33c-0.23,0.76 -0.34,1.58 -0.34,2.45c0,2.24 0.64,4.01 1.92,5.3c1.29,1.28 3.07,1.92 5.35,1.92c2.37,0 4.43,-0.55 6.18,-1.66c1.76,-1.11 3.12,-2.7 4.07,-4.76c0,0 0.48,0 0.48,0c0,0 0,5.92 0,5.92zm0,-10.08c0,2.78 -0.99,5.06 -2.97,6.88c-1.98,1.8 -4.48,2.7 -7.48,2.7c-2.06,0 -3.66,-0.56 -4.82,-1.69c-1.15,-1.12 -1.73,-2.66 -1.73,-4.61c0,-5.13 4.45,-7.7 13.34,-7.7c0,0 3.66,0 3.66,0c0,0 0,4.42 0,4.42zm24.05,-14.42c0,0 -10.05,0 -10.05,0c0,0 0,-9.33 0,-9.33c0,0 -1,0 -1,0c0,0 0,9.33 0,9.33c0,0 -6.12,0 -6.12,0c0,0 0,1 0,1c0,0 6.12,0 6.12,0c0,0 0,16.92 0,16.92c0,2.74 0.53,4.61 1.59,5.6c1.07,0.98 2.82,1.48 5.29,1.48c1.37,0 2.6,-0.39 3.68,-1.16c0,0 0,-0.56 0,-0.56c-1.08,0.48 -2.31,0.72 -3.68,0.72c-2.24,0 -3.77,-0.42 -4.61,-1.27c-0.85,-0.84 -1.27,-2.57 -1.27,-5.18c0,0 0,-16.55 0,-16.55c0,0 10.05,0 10.05,0c0,0 0,-1 0,-1zm11.95,23.77c0,0 0,-24.99 0,-24.99c0,0 -1,0 -1,0c0,0 0,24.99 0,24.99c0,0 1,0 1,0zm0,-32.77c0,0 0,-4 0,-4c0,0 -1,0 -1,0c0,0 0,4 0,4c0,0 1,0 1,0zm9,20.5c0,-4.02 0.91,-7.11 2.72,-9.27c1.81,-2.15 4.4,-3.23 7.78,-3.23c3.38,0 5.97,1.08 7.78,3.23c1.81,2.16 2.72,5.25 2.72,9.27c0,4.02 -0.91,7.11 -2.72,9.27c-1.81,2.15 -4.4,3.23 -7.78,3.23c-3.38,0 -5.98,-1.1 -7.81,-3.3c-1.8,-2.11 -2.69,-5.18 -2.69,-9.2zm22,0.03c0,-4.31 -1.01,-7.64 -3.02,-10c-2,-2.35 -4.82,-3.53 -8.48,-3.53c-3.66,0 -6.49,1.18 -8.5,3.53c-2,2.36 -3,5.69 -3,10c0,4.31 1,7.63 3,9.97c2.01,2.34 4.84,3.5 8.5,3.5c3.66,0 6.47,-1.16 8.44,-3.48c2.04,-2.36 3.06,-5.68 3.06,-9.99zm7,-12.53c0,0 -1,0 -1,0c0,0 0,24.98 0,24.98c0,0 1,0 1,0c0,0 0,-16.89 0,-16.89c0,-1.85 1.02,-3.66 3.08,-5.43c2.05,-1.77 4.18,-2.66 6.39,-2.66c2.59,0 4.49,0.7 5.7,2.08c1.22,1.38 1.83,4.04 1.83,7.97c0,0 0,14.93 0,14.93c0,0 1,0 1,0c0,0 0,-14.93 0,-14.93c0,-3.85 -0.65,-6.66 -1.94,-8.41c-1.28,-1.76 -3.38,-2.64 -6.31,-2.64c-1.72,0 -3.45,0.62 -5.19,1.88c-1.74,1.24 -3.1,2.65 -4.08,4.24c0,0 -0.48,0 -0.48,0c0,0 0,-5.12 0,-5.12zm68,25.5c0,0 1,0 1,0c0,0 0,-18.59 0,-18.59c0,-2.86 -0.7,-4.89 -2.08,-6.1c-1.38,-1.2 -3.56,-1.81 -6.53,-1.81c-3.28,0 -6.21,0.7 -8.8,2.09c0,0 0,0.58 0,0.58c2.59,-1.11 5.52,-1.67 8.8,-1.67c2.77,0 4.73,0.55 5.88,1.64c1.15,1.09 1.73,2.97 1.73,5.61c0,0 0,2.75 0,2.75c0,0 -3.75,0 -3.75,0c-2.25,0 -4.26,0.19 -6.02,0.56c-1.75,0.38 -3.13,0.85 -4.14,1.42c-1.01,0.57 -1.83,1.24 -2.47,2.02c-0.62,0.78 -1.05,1.56 -1.28,2.33c-0.23,0.76 -0.34,1.58 -0.34,2.45c0,2.24 0.64,4.01 1.92,5.3c1.29,1.28 3.07,1.92 5.35,1.92c2.37,0 4.43,-0.55 6.18,-1.66c1.76,-1.11 3.12,-2.7 4.07,-4.76c0,0 0.48,0 0.48,0c0,0 0,5.92 0,5.92zm0,-10.08c0,2.78 -0.99,5.06 -2.97,6.88c-1.98,1.8 -4.48,2.7 -7.48,2.7c-2.06,0 -3.66,-0.56 -4.82,-1.69c-1.15,-1.12 -1.73,-2.66 -1.73,-4.61c0,-5.13 4.45,-7.7 13.34,-7.7c0,0 3.66,0 3.66,0c0,0 0,4.42 0,4.42zm26.34,-12.9c-1.77,-2.35 -4.3,-3.52 -7.59,-3.52c-2.07,0 -3.92,0.48 -5.53,1.42c-1.61,0.94 -2.85,2.24 -3.74,3.91c0,0 -0.48,0 -0.48,0c0,0 0,-4.78 0,-4.78c0,0 -1,0 -1,0c0,0 0,36.75 0,36.75c0,0 1,0 1,0c0,0 0,-15.57 0,-15.57c0,0 0.48,0 0.48,0c0.89,1.66 2.13,2.95 3.74,3.88c1.61,0.93 3.46,1.39 5.53,1.39c3.26,0 5.78,-1.16 7.56,-3.5c1.79,-2.34 2.69,-5.66 2.69,-9.97c0,-4.34 -0.89,-7.68 -2.66,-10.01zm-0.81,19.25c-1.65,2.15 -3.99,3.23 -7.03,3.23c-2.72,0 -4.98,-0.81 -6.8,-2.44c-1.8,-1.63 -2.7,-3.6 -2.7,-5.89c0,0 0,-8.34 0,-8.34c0,-2.32 0.9,-4.29 2.7,-5.91c1.82,-1.61 4.08,-2.42 6.8,-2.42c3.07,0 5.42,1.06 7.05,3.19c1.63,2.12 2.45,5.23 2.45,9.31c0,4.02 -0.82,7.11 -2.47,9.27zm27.81,-19.25c-1.77,-2.35 -4.3,-3.52 -7.59,-3.52c-2.07,0 -3.92,0.48 -5.53,1.42c-1.61,0.94 -2.85,2.24 -3.74,3.91c0,0 -0.48,0 -0.48,0c0,0 0,-4.78 0,-4.78c0,0 -1,0 -1,0c0,0 0,36.75 0,36.75c0,0 1,0 1,0c0,0 0,-15.57 0,-15.57c0,0 0.48,0 0.48,0c0.89,1.66 2.13,2.95 3.74,3.88c1.61,0.93 3.46,1.39 5.53,1.39c3.26,0 5.78,-1.16 7.56,-3.5c1.79,-2.34 2.69,-5.66 2.69,-9.97c0,-4.34 -0.89,-7.68 -2.66,-10.01zm-0.81,19.25c-1.65,2.15 -3.99,3.23 -7.03,3.23c-2.72,0 -4.98,-0.81 -6.8,-2.44c-1.8,-1.63 -2.7,-3.6 -2.7,-5.89c0,0 0,-8.34 0,-8.34c0,-2.32 0.9,-4.29 2.7,-5.91c1.82,-1.61 4.08,-2.42 6.8,-2.42c3.07,0 5.42,1.06 7.05,3.19c1.63,2.12 2.45,5.23 2.45,9.31c0,4.02 -0.82,7.11 -2.47,9.27zm13.47,3c0,0 0,-36.29 0,-36.29c0,0 -1,0 -1,0c0,0 0,36.29 0,36.29c0,0 1,0 1,0zm14,0c0,0 0,-24.99 0,-24.99c0,0 -1,0 -1,0c0,0 0,24.99 0,24.99c0,0 1,0 1,0zm0,-32.77c0,0 0,-4 0,-4c0,0 -1,0 -1,0c0,0 0,4 0,4c0,0 1,0 1,0zm25.89,9.2c0,0 0,-0.58 0,-0.58c-2.14,-1.08 -4.34,-1.62 -6.61,-1.62c-3.44,0 -6.18,1.15 -8.22,3.44c-2.04,2.28 -3.06,5.65 -3.06,10.09c0,4.47 1.04,7.84 3.12,10.09c2.1,2.26 4.98,3.38 8.65,3.38c2.19,0 4.31,-0.54 6.35,-1.62c0,0 0,-0.58 0,-0.58c-1.9,0.8 -4.02,1.2 -6.35,1.2c-7.18,0 -10.77,-4.16 -10.77,-12.5c0,-1.59 0.14,-3.05 0.42,-4.38c0.29,-1.33 0.79,-2.64 1.49,-3.95c0.7,-1.31 1.77,-2.33 3.2,-3.06c1.44,-0.74 3.16,-1.11 5.17,-1.11c2.4,0 4.6,0.4 6.61,1.2zm25.11,24.3c0,0 1,0 1,0c0,0 0,-18.59 0,-18.59c0,-2.86 -0.7,-4.89 -2.08,-6.1c-1.38,-1.2 -3.56,-1.81 -6.53,-1.81c-3.28,0 -6.21,0.7 -8.8,2.09c0,0 0,0.58 0,0.58c2.59,-1.11 5.52,-1.67 8.8,-1.67c2.77,0 4.73,0.55 5.88,1.64c1.15,1.09 1.73,2.97 1.73,5.61c0,0 0,2.75 0,2.75c0,0 -3.75,0 -3.75,0c-2.25,0 -4.26,0.19 -6.02,0.56c-1.75,0.38 -3.13,0.85 -4.14,1.42c-1.01,0.57 -1.83,1.24 -2.47,2.02c-0.62,0.78 -1.05,1.56 -1.28,2.33c-0.23,0.76 -0.34,1.58 -0.34,2.45c0,2.24 0.64,4.01 1.92,5.3c1.29,1.28 3.07,1.92 5.35,1.92c2.37,0 4.43,-0.55 6.18,-1.66c1.76,-1.11 3.12,-2.7 4.07,-4.76c0,0 0.48,0 0.48,0c0,0 0,5.92 0,5.92zm0,-10.08c0,2.78 -0.99,5.06 -2.97,6.88c-1.98,1.8 -4.48,2.7 -7.48,2.7c-2.06,0 -3.66,-0.56 -4.82,-1.69c-1.15,-1.12 -1.73,-2.66 -1.73,-4.61c0,-5.13 4.45,-7.7 13.34,-7.7c0,0 3.66,0 3.66,0c0,0 0,4.42 0,4.42zm24.05,-14.42c0,0 -10.05,0 -10.05,0c0,0 0,-9.33 0,-9.33c0,0 -1,0 -1,0c0,0 0,9.33 0,9.33c0,0 -6.12,0 -6.12,0c0,0 0,1 0,1c0,0 6.12,0 6.12,0c0,0 0,16.92 0,16.92c0,2.74 0.53,4.61 1.59,5.6c1.07,0.98 2.82,1.48 5.29,1.48c1.37,0 2.6,-0.39 3.68,-1.16c0,0 0,-0.56 0,-0.56c-1.08,0.48 -2.31,0.72 -3.68,0.72c-2.24,0 -3.77,-0.42 -4.61,-1.27c-0.85,-0.84 -1.27,-2.57 -1.27,-5.18c0,0 0,-16.55 0,-16.55c0,0 10.05,0 10.05,0c0,0 0,-1 0,-1zm11.95,23.77c0,0 0,-24.99 0,-24.99c0,0 -1,0 -1,0c0,0 0,24.99 0,24.99c0,0 1,0 1,0zm0,-32.77c0,0 0,-4 0,-4c0,0 -1,0 -1,0c0,0 0,4 0,4c0,0 1,0 1,0zm9,20.5c0,-4.02 0.91,-7.11 2.72,-9.27c1.81,-2.15 4.4,-3.23 7.78,-3.23c3.38,0 5.97,1.08 7.78,3.23c1.81,2.16 2.72,5.25 2.72,9.27c0,4.02 -0.91,7.11 -2.72,9.27c-1.81,2.15 -4.4,3.23 -7.78,3.23c-3.38,0 -5.98,-1.1 -7.81,-3.3c-1.8,-2.11 -2.69,-5.18 -2.69,-9.2zm22,0.03c0,-4.31 -1.01,-7.64 -3.02,-10c-2,-2.35 -4.82,-3.53 -8.48,-3.53c-3.66,0 -6.49,1.18 -8.5,3.53c-2,2.36 -3,5.69 -3,10c0,4.31 1,7.63 3,9.97c2.01,2.34 4.84,3.5 8.5,3.5c3.66,0 6.47,-1.16 8.44,-3.48c2.04,-2.36 3.06,-5.68 3.06,-9.99zm7,-12.53c0,0 -1,0 -1,0c0,0 0,24.98 0,24.98c0,0 1,0 1,0c0,0 0,-16.89 0,-16.89c0,-1.85 1.02,-3.66 3.08,-5.43c2.05,-1.77 4.18,-2.66 6.39,-2.66c2.59,0 4.49,0.7 5.7,2.08c1.22,1.38 1.83,4.04 1.83,7.97c0,0 0,14.93 0,14.93c0,0 1,0 1,0c0,0 0,-14.93 0,-14.93c0,-3.85 -0.65,-6.66 -1.94,-8.41c-1.28,-1.76 -3.38,-2.64 -6.31,-2.64c-1.72,0 -3.45,0.62 -5.19,1.88c-1.74,1.24 -3.1,2.65 -4.08,4.24c0,0 -0.48,0 -0.48,0c0,0 0,-5.12 0,-5.12zm26.8,9.56c1.19,1.03 3.25,1.85 6.15,2.47c3.16,0.62 5.29,1.5 6.39,2.66c1.11,1.15 1.66,2.51 1.66,4.06c0,1.93 -0.72,3.45 -2.16,4.58c-1.43,1.12 -3.38,1.67 -5.84,1.67c-2.91,0 -5.57,-0.64 -8,-1.92c0,0 0,0.53 0,0.53c2.57,1.59 5.32,2.39 8.25,2.39c2.71,0 4.84,-0.6 6.41,-1.8c1.56,-1.2 2.34,-2.86 2.34,-4.95c0,-1.91 -0.67,-3.45 -2.02,-4.61c-1.34,-1.16 -3.48,-2.05 -6.4,-2.67c-2.88,-0.58 -4.86,-1.38 -5.96,-2.39c-1.08,-1.01 -1.62,-2.3 -1.62,-3.86c0,-1.79 0.68,-3.19 2.03,-4.2c1.36,-1.01 3.22,-1.52 5.58,-1.52c2.68,0 5.29,0.5 7.84,1.48c0,0 0,-0.62 0,-0.62c-2.48,-1.24 -5.09,-1.86 -7.84,-1.86c-2.46,0 -4.51,0.57 -6.16,1.72c-1.63,1.14 -2.45,2.65 -2.45,4.53c0,1.86 0.6,3.29 1.8,4.31zm24.2,15.44c0,0 0,-5 0,-5c0,0 -1,0 -1,0c0,0 0,5 0,5c0,0 1,0 1,0z" fill="#fec0cb"/>
  <path d="m590.5,50c0,0 -40,0 -40,0c0,0 0,131.14 0,131.14c0,7.27 -2.93,10.91 -8.78,10.91c-3.47,0 -5.58,-2.27 -6.31,-6.82c0,0 -33.46,-98.28 -33.46,-98.28c0,0 0.27,0 0.27,0c-3.47,-10.92 -9.28,-19.48 -17.42,-25.67c-8.14,-6.19 -17.06,-9.28 -26.75,-9.28c-6.76,0 -13.12,1.09 -19.07,3.28c-5.93,2.18 -11.1,5.27 -15.5,9.27c-4.38,4 -7.81,8.86 -10.28,14.59c-2.47,5.73 -3.7,12.05 -3.7,18.95c0,0 0,133.91 0,133.91c0,0 40,0 40,0c0,0 0,-131.12 0,-131.12c0,-7.29 2.93,-10.93 8.78,-10.93c3.47,0 5.57,2.28 6.31,6.83c0,0 33.19,98.28 33.19,98.28c3.66,10.92 9.46,19.47 17.41,25.66c7.95,6.19 16.88,9.28 26.76,9.28c6.76,0 13.11,-1.09 19.05,-3.28c5.95,-2.18 11.11,-5.27 15.5,-9.27c4.39,-4 7.83,-8.86 10.3,-14.59c2.47,-5.73 3.7,-12.05 3.7,-18.95c0,0 0,-133.91 0,-133.91z" fill="#fec0cb"/>
 </g>
</svg>